<svg width="87" height="87" viewBox="0 0 87 87" fill="none" xmlns="http://www.w3.org/2000/svg">
<path d="M40.9513 50.5904C40.9513 62.9456 40.9763 62.0533 40.8919 62.4288C38.7563 71.8282 31.5055 75.208 21.9847 75.208C18.2889 75.208 15.4597 74.654 15.2031 74.6032C14.2124 74.4032 13.4393 73.6561 13.232 72.7023C13.1096 72.1434 10.3433 58.9546 17.4851 52.0653C19.3814 50.2364 21.9014 48.9353 24.977 48.1962C25.4631 48.0818 38.4574 48.0895 38.931 48.1846C40.1068 48.4256 40.9513 49.4269 40.9513 50.5904Z" fill="#70DD59"/>
<path d="M73.7682 72.702C73.5609 73.6558 72.7877 74.4031 71.7971 74.6029C71.5405 74.6537 68.7096 75.2077 65.0155 75.2077C60.3766 75.2077 54.375 74.3358 50.3971 70.5012C48.3105 68.4871 46.8679 65.7718 46.1083 62.4287C46.0692 62.2551 46.0488 62.0797 46.0488 61.9026V50.5903C46.0488 49.169 47.2599 48.124 48.6401 48.124H61.4064C62.215 48.124 66.4996 49.157 69.515 52.0652C76.6569 58.9543 73.8905 72.1432 73.7682 72.702Z" fill="#2BB65E"/>
<path d="M38.0351 20.0387L36.1133 11.6158C35.8001 10.2433 36.6589 8.877 38.0313 8.56384C39.4035 8.25101 40.7703 9.10945 41.0831 10.4817L43.0049 18.9046C43.3181 20.2771 42.4593 21.6434 41.0869 21.9566C39.7144 22.2696 38.3482 21.4111 38.0351 20.0387Z" fill="#D66823"/>
<path d="M45.9131 21.9569C44.5407 21.6437 43.682 20.2774 43.995 18.9049L45.9169 10.4821C46.23 9.10977 47.5972 8.25031 48.9687 8.56415C50.3411 8.87732 51.1997 10.2437 50.8867 11.6161L48.9649 20.039C48.6507 21.4158 47.2795 22.2695 45.9131 21.9569Z" fill="#9A4916"/>
<path d="M40.9512 36.1785V48.1526C40.9512 49.4926 39.8093 50.5801 38.4023 50.5801H19.3779C8.6932 50.5801 0 42.3006 0 32.1247V20.1506C0 18.8091 1.14188 17.7231 2.54883 17.7231H21.5733C32.258 17.7231 40.9512 26.0024 40.9512 36.1785Z" fill="#FF7B94"/>
<path d="M87 20.1506V32.1247C87 42.3006 78.3068 50.5801 67.6221 50.5801H48.5977C47.1907 50.5801 46.0488 49.4926 46.0488 48.1526V36.1785C46.0488 26.0026 54.742 17.7231 65.4267 17.7231H84.4512C85.8581 17.7231 87 18.8091 87 20.1506Z" fill="#FE4566"/>
<path d="M25.564 65.0264C26.9716 65.0264 28.1128 63.8852 28.1128 62.4775C28.1128 61.0699 26.9716 59.9287 25.564 59.9287C24.1563 59.9287 23.0151 61.0699 23.0151 62.4775C23.0151 63.8852 24.1563 65.0264 25.564 65.0264Z" fill="#2BB65E"/>
<path d="M61.436 65.0264C62.8437 65.0264 63.9849 63.8852 63.9849 62.4775C63.9849 61.0699 62.8437 59.9287 61.436 59.9287C60.0284 59.9287 58.8872 61.0699 58.8872 62.4775C58.8872 63.8852 60.0284 65.0264 61.436 65.0264Z" fill="#008F61"/>
<path d="M30.4976 39.9845C28.4793 44.0278 22.4588 44.5109 17.0551 41.8112C11.6285 39.096 8.4416 33.9832 10.4536 29.9591C12.4601 25.9493 18.4534 25.411 23.8962 28.1341C29.3535 30.8609 32.4974 35.9881 30.4976 39.9845Z" fill="#FFC5CE"/>
<path d="M69.9448 41.8114C64.3802 44.5915 58.4674 43.915 56.5022 39.9847C55.4878 37.9576 55.7784 35.4478 57.2975 33.1012C59.9449 29.0156 65.7434 26.1353 70.5599 26.4675C73.35 26.6595 75.5318 27.9322 76.5462 29.9593C78.5367 33.9404 75.431 39.0663 69.9448 41.8114Z" fill="#FFA1B2"/>
<path d="M49.4062 20.6799V42.7222L47.9291 45.271L49.4062 47.8198V52.9175L48.0883 55.4663L49.4062 58.0152V72.5945C49.4062 75.8568 46.7624 78.5009 43.4997 78.5009C40.2372 78.5009 37.5933 75.857 37.5933 72.5945V58.0152L39.5589 55.4663L37.5933 52.9175V47.8198L39.0148 45.271L37.5933 42.7222V20.6799C37.5933 17.4174 40.2372 14.7734 43.4997 14.7734C46.7622 14.7734 49.4062 17.4174 49.4062 20.6799Z" fill="#F09B00"/>
<path d="M49.4065 20.6799V42.7222L47.9294 45.271L49.4065 47.8198V52.9175L48.0886 55.4663L49.4065 58.0152V72.5945C49.4065 75.8568 46.7627 78.5009 43.5 78.5009V14.7734C46.7625 14.7734 49.4065 17.4174 49.4065 20.6799Z" fill="#D66823"/>
<path d="M37.5933 42.7222H49.4062V47.8198H37.5933V42.7222Z" fill="#D66823"/>
<path d="M37.5933 52.9175H49.4062V58.0151H37.5933V52.9175Z" fill="#D66823"/>
<path d="M43.5 42.7222H49.4065V47.8198H43.5V42.7222Z" fill="#9A4916"/>
<path d="M43.5 52.9175H49.4065V58.0151H43.5V52.9175Z" fill="#9A4916"/>
</svg>
