<svg width="12" height="19" viewBox="0 0 12 19" fill="none" xmlns="http://www.w3.org/2000/svg">
<path d="M6.44522 5.18066C5.95041 5.18066 5.54932 5.58176 5.54932 6.07657V18.1041C5.54932 18.5989 5.95041 19 6.44522 19C6.94003 19 7.34113 18.5989 7.34113 18.1041V6.07657C7.34113 5.58176 6.94003 5.18066 6.44522 5.18066Z" fill="white"/>
<path d="M8.34365 1.46343C7.29553 0.417641 5.59214 0.418402 4.54456 1.46594L1.19763 4.81591C0.847955 5.16595 0.848224 5.73319 1.19821 6.0829C1.37318 6.2577 1.60226 6.34505 1.83144 6.34505C2.06083 6.34505 2.29028 6.25743 2.46525 6.08237L5.81191 2.73266C6.16118 2.38335 6.72959 2.38335 7.07885 2.73266C7.08015 2.73396 7.0815 2.73526 7.0828 2.73656L10.4745 6.08653C10.8266 6.43424 11.3938 6.4307 11.7415 6.07869C12.0892 5.72665 12.0857 5.1594 11.7337 4.8117L8.34365 1.46343Z" fill="white"/>
</svg>
