<svg width="35" height="35" viewBox="0 0 35 35" fill="none" xmlns="http://www.w3.org/2000/svg">
<path d="M23.275 17.5011L34.1027 6.67338C35.299 5.47703 35.299 3.53745 34.1027 2.34297L32.6592 0.899505C31.4625 -0.297218 29.5229 -0.297218 28.3284 0.899505L17.5011 11.7268L6.67338 0.897262C5.47703 -0.299087 3.53745 -0.299087 2.34297 0.897262L0.897262 2.34073C-0.299087 3.53745 -0.299087 5.47703 0.897262 6.67151L11.7268 17.5011L0.899505 28.3284C-0.297218 29.5251 -0.297218 31.4647 0.899505 32.6592L2.34297 34.1027C3.53932 35.299 5.4789 35.299 6.67338 34.1027L17.5011 23.275L28.3284 34.1027C29.5251 35.299 31.4647 35.299 32.6592 34.1027L34.1027 32.6592C35.299 31.4625 35.299 29.5229 34.1027 28.3284L23.275 17.5011Z" fill="#FCEE0A"/>
</svg>
