<svg width="50" height="50" viewBox="0 0 50 50" fill="none" xmlns="http://www.w3.org/2000/svg">
<path d="M46.4651 0.50625C46.1683 0.184375 45.7526 0 45.312 0H4.68701C4.24951 0 3.83076 0.184375 3.53389 0.50625C3.24014 0.83125 3.09326 1.2625 3.13076 1.69687L6.83076 43.8844C6.88701 44.5344 7.33701 45.075 7.96201 45.2531L24.5745 49.9406C24.7151 49.9813 24.8558 50 24.9995 50C25.1433 50 25.287 49.9813 25.4245 49.9438L42.0308 45.2594C42.6558 45.0812 43.1026 44.5375 43.162 43.8906L46.8683 1.7C46.909 1.2625 46.762 0.83125 46.4651 0.50625ZM40.1464 42.5406L24.9995 46.8125L9.84951 42.5375L6.39326 3.125H43.6058L40.1464 42.5406Z" fill="white"/>
<path d="M37.0771 9.86875C36.7834 9.55312 36.3709 9.375 35.9365 9.375H14.0615C13.199 9.375 12.499 10.075 12.499 10.9375C12.499 11.8 13.199 12.5 14.0615 12.5H34.2678L32.8834 33.225L24.999 35.8531L17.1865 33.25V31.25C17.1865 30.3875 16.4865 29.6875 15.624 29.6875C14.7615 29.6875 14.0615 30.3875 14.0615 31.25V34.375C14.0615 35.0469 14.4928 35.6438 15.1303 35.8594L24.5053 38.9844C24.6646 39.0344 24.8334 39.0625 24.999 39.0625C25.1678 39.0625 25.3303 39.0344 25.4928 38.9813L34.8678 35.8563C35.4709 35.6562 35.8897 35.1125 35.9334 34.4781L37.4959 11.0406C37.524 10.6094 37.3709 10.1844 37.0771 9.86875Z" fill="white"/>
<path d="M35.0937 21.875H14.4375C13.575 21.875 12.875 22.575 12.875 23.4375C12.875 24.3 13.575 25 14.4375 25H35.0937C35.9594 25 36.6562 24.3 36.6562 23.4375C36.6562 22.575 35.9562 21.875 35.0937 21.875Z" fill="white"/>
</svg>
