<svg width="50" height="51" viewBox="0 0 50 51" fill="none" xmlns="http://www.w3.org/2000/svg">
<path d="M25 0C11.2598 0 0 11.5263 0 25.4707C0 39.3342 11.1572 50.7432 25 50.7432C38.8256 50.7432 50 39.3512 50 25.4707C50 11.5263 38.7402 0 25 0ZM29.3945 47.3239C27.9884 47.6213 26.4942 47.7699 25 47.7699C23.5058 47.7699 22.0116 47.6213 20.6055 47.3239V40.3667C20.6055 38.7016 21.0449 38.1069 21.6309 37.304C21.9292 36.9579 22.1092 36.6474 23.447 34.5987L21.1914 34.2417C15.3904 33.3796 13.1054 30.3169 12.1971 27.9383C11.0252 24.7572 11.6405 20.7728 13.7501 18.2459C14.0724 17.8591 14.336 17.2049 14.1018 16.5212C13.662 15.1534 13.7207 12.9831 14.0137 12.1504C15.567 12.3757 17.1642 13.505 18.4963 14.3211C19.1101 14.6846 19.4321 14.5886 19.7266 14.6184C20.797 14.3923 22.4667 13.8453 25.0294 13.8453C26.6113 13.8453 28.2814 14.083 29.9221 14.5588C30.2155 14.5518 30.687 14.805 31.5041 14.3211C32.8964 13.4601 34.4395 12.3695 35.9863 12.1504C36.2793 12.9831 36.338 15.1534 35.8986 16.5212C35.664 17.2049 35.9276 17.8591 36.2503 18.2459C38.3595 20.7731 38.9748 24.7572 37.8029 27.9383C36.8946 30.3169 34.6096 33.3796 28.8086 34.2417L26.553 34.5987C27.9358 36.7163 28.0815 36.9703 28.3695 37.304C28.9551 38.1069 29.3945 38.7016 29.3945 40.3667V47.3239ZM32.3242 46.4618V40.3667C32.3242 38.6718 31.9725 37.5421 31.5037 36.7094C35.957 35.4906 39.1212 32.8143 40.5273 28.9789C42.0216 24.9357 41.3479 20.1189 38.8573 16.7887C39.2971 14.7969 39.2971 11.6153 38.2423 10.1287C37.7735 9.47485 37.1288 9.11791 36.3087 9.11791C36.2793 9.11791 36.2793 9.11791 36.2793 9.11791C34.0076 9.24257 32.2197 10.4036 30.3028 11.5855C28.545 11.1097 26.7578 10.872 24.9706 10.872C23.1544 10.872 21.3379 11.1396 19.7269 11.5855C17.709 10.3506 15.9382 9.23947 13.6036 9.11791C12.8712 9.11791 12.2265 9.47485 11.7577 10.1287C10.7033 11.6153 10.7033 14.7969 11.1427 16.7887C8.65211 20.1189 7.97844 24.9651 9.47266 28.9789C10.8788 32.8143 14.043 35.4906 18.4963 36.7094C18.1328 37.3547 17.8452 38.1875 17.7319 39.3144C16.8324 39.6292 16.0522 39.7318 15.3267 39.5153C14.5615 39.2858 13.9652 38.7674 13.4472 37.8832C12.2837 35.8995 10.302 34.2801 8.04558 34.4907L8.30307 37.4523C9.34792 37.3551 10.3878 38.477 10.928 39.4019C11.8191 40.9249 13.0196 41.9237 14.497 42.3666C15.5937 42.6945 16.5962 42.6868 17.6758 42.453V46.4618C9.15031 43.4289 2.92969 35.1635 2.92969 25.4707C2.92969 13.1616 12.8712 2.97323 25 2.97323C37.1288 2.97323 47.0703 13.1616 47.0703 25.4707C47.0703 35.1635 40.8497 43.4289 32.3242 46.4618Z" fill="white"/>
</svg>
