<svg xmlns="http://www.w3.org/2000/svg" xmlns:xlink="http://www.w3.org/1999/xlink" viewBox="0 0 2500.82 1600"><defs><style>.cls-1{isolation:isolate;}.cls-2{fill:url(#linear-gradient);}.cls-3{fill:#00b585;}.cls-4{fill:url(#linear-gradient-2);}.cls-5{fill:#1e0b53;opacity:0.59;}.cls-5,.cls-6{mix-blend-mode:overlay;}.cls-6{fill:#fffdf6;opacity:0.37;}.cls-7{fill:url(#linear-gradient-3);}.cls-8{fill:url(#linear-gradient-4);}.cls-9{fill:url(#linear-gradient-5);}.cls-10{fill:url(#linear-gradient-6);}.cls-11{fill:url(#linear-gradient-7);}.cls-12{fill:url(#linear-gradient-8);}.cls-13{fill:url(#linear-gradient-9);}.cls-14{fill:url(#linear-gradient-10);}.cls-15{fill:url(#linear-gradient-11);}.cls-16{fill:url(#linear-gradient-12);}.cls-17{fill:url(#linear-gradient-13);}.cls-18{fill:url(#linear-gradient-14);}.cls-19{fill:url(#linear-gradient-15);}.cls-20{fill:url(#linear-gradient-16);}.cls-21{fill:url(#linear-gradient-17);}.cls-22{fill:url(#linear-gradient-18);}.cls-23{fill:url(#linear-gradient-19);}.cls-24{fill:url(#linear-gradient-20);}.cls-25{fill:url(#linear-gradient-21);}.cls-26{fill:url(#linear-gradient-22);}.cls-27{fill:url(#linear-gradient-23);}.cls-28{fill:url(#linear-gradient-24);}.cls-29{fill:url(#linear-gradient-25);}.cls-30{fill:url(#linear-gradient-26);}.cls-31{fill:url(#linear-gradient-27);}.cls-32{fill:url(#linear-gradient-28);}.cls-33{fill:url(#linear-gradient-29);}.cls-34{fill:url(#linear-gradient-30);}.cls-35{fill:url(#linear-gradient-31);}.cls-36{fill:url(#linear-gradient-32);}.cls-37{fill:url(#linear-gradient-33);}.cls-38{fill:url(#linear-gradient-34);}.cls-39{fill:url(#linear-gradient-35);}.cls-40{fill:url(#linear-gradient-36);}.cls-41{fill:url(#linear-gradient-37);}.cls-42{fill:url(#linear-gradient-38);}.cls-43{fill:url(#linear-gradient-39);}.cls-44{fill:url(#linear-gradient-40);}.cls-45{fill:url(#linear-gradient-41);}.cls-46{fill:url(#linear-gradient-42);}.cls-47{fill:url(#linear-gradient-43);}.cls-48{fill:url(#linear-gradient-44);}.cls-49{fill:url(#linear-gradient-45);}.cls-50{fill:url(#linear-gradient-46);}.cls-51{fill:url(#linear-gradient-47);}.cls-52{fill:url(#linear-gradient-48);}.cls-53{fill:url(#linear-gradient-49);}.cls-54{fill:url(#linear-gradient-50);}.cls-55{fill:url(#linear-gradient-51);}.cls-56{fill:url(#linear-gradient-52);}.cls-57{fill:url(#linear-gradient-53);}.cls-58{fill:url(#linear-gradient-54);}.cls-59{fill:url(#linear-gradient-55);}.cls-60{fill:url(#linear-gradient-56);}.cls-61{fill:url(#linear-gradient-57);}.cls-62{fill:url(#linear-gradient-58);}.cls-63{fill:url(#linear-gradient-59);}.cls-64{fill:url(#linear-gradient-60);}.cls-65{fill:url(#linear-gradient-61);}.cls-66{fill:url(#linear-gradient-62);}.cls-67{fill:url(#linear-gradient-63);}.cls-68{fill:url(#linear-gradient-64);}.cls-69{fill:url(#linear-gradient-65);}.cls-70{fill:url(#linear-gradient-66);}.cls-71{fill:url(#linear-gradient-67);}.cls-72{fill:url(#linear-gradient-68);}.cls-73{fill:url(#linear-gradient-69);}.cls-74{fill:url(#linear-gradient-70);}.cls-75{fill:url(#linear-gradient-71);}.cls-76{fill:url(#linear-gradient-72);}.cls-77{fill:url(#linear-gradient-73);}.cls-78{fill:url(#linear-gradient-74);}.cls-79{fill:url(#linear-gradient-75);}.cls-80{fill:url(#linear-gradient-76);}.cls-81{fill:url(#linear-gradient-77);}.cls-82{fill:url(#linear-gradient-78);}.cls-83{fill:url(#linear-gradient-79);}.cls-84{fill:url(#linear-gradient-80);}.cls-85{fill:url(#linear-gradient-81);}.cls-86{fill:url(#linear-gradient-82);}.cls-87{fill:url(#linear-gradient-83);}.cls-88{fill:url(#linear-gradient-84);}.cls-89{fill:url(#linear-gradient-85);}.cls-90{fill:url(#linear-gradient-86);}.cls-91{fill:url(#linear-gradient-87);}.cls-92{fill:url(#linear-gradient-88);}.cls-93{fill:url(#linear-gradient-89);}.cls-94{fill:url(#linear-gradient-90);}.cls-95{fill:url(#linear-gradient-91);}.cls-96{fill:url(#linear-gradient-92);}.cls-97{fill:url(#linear-gradient-93);}.cls-98{fill:url(#linear-gradient-94);}.cls-99{fill:url(#linear-gradient-95);}.cls-100{fill:url(#linear-gradient-96);}.cls-101{fill:url(#linear-gradient-97);}.cls-102{fill:url(#linear-gradient-98);}.cls-103{fill:url(#linear-gradient-99);}.cls-104{fill:url(#linear-gradient-100);}.cls-105{fill:url(#linear-gradient-101);}.cls-106{fill:url(#linear-gradient-102);}.cls-107{fill:url(#linear-gradient-103);}.cls-108{fill:url(#linear-gradient-104);}.cls-109{fill:url(#linear-gradient-105);}.cls-110{fill:url(#linear-gradient-106);}.cls-111{fill:url(#linear-gradient-107);}.cls-112{fill:#004d40;}.cls-113{fill:url(#linear-gradient-108);}.cls-114{fill:url(#linear-gradient-109);}.cls-115{fill:url(#linear-gradient-110);}.cls-116{fill:url(#linear-gradient-111);}.cls-117{fill:url(#linear-gradient-112);}.cls-118{fill:url(#linear-gradient-113);}.cls-119{fill:url(#linear-gradient-114);}.cls-120{fill:url(#linear-gradient-115);}.cls-121{fill:url(#linear-gradient-116);}.cls-122{fill:url(#linear-gradient-117);}.cls-123{fill:url(#linear-gradient-118);}.cls-124{fill:url(#linear-gradient-119);}.cls-125{fill:url(#linear-gradient-120);}.cls-126{fill:url(#linear-gradient-121);}.cls-127{fill:url(#linear-gradient-122);}.cls-128{fill:url(#linear-gradient-123);}.cls-129{fill:url(#linear-gradient-124);}.cls-130{fill:url(#linear-gradient-125);}.cls-131{fill:url(#linear-gradient-126);}.cls-132{fill:url(#linear-gradient-127);}.cls-133{fill:url(#linear-gradient-128);}.cls-134{fill:url(#linear-gradient-129);}.cls-135{fill:url(#linear-gradient-130);}.cls-136{fill:url(#linear-gradient-131);}.cls-137{fill:url(#linear-gradient-132);}.cls-138{fill:url(#linear-gradient-133);}.cls-139{fill:url(#linear-gradient-134);}.cls-140{fill:url(#linear-gradient-135);}.cls-141{fill:url(#linear-gradient-136);}.cls-142{fill:url(#linear-gradient-137);}.cls-143{fill:url(#linear-gradient-138);}.cls-144{fill:url(#linear-gradient-139);}.cls-145{fill:url(#linear-gradient-140);}.cls-146{fill:url(#linear-gradient-141);}.cls-147{fill:url(#linear-gradient-142);}.cls-148{fill:url(#linear-gradient-143);}.cls-149{fill:url(#linear-gradient-144);}.cls-150{fill:url(#linear-gradient-145);}.cls-151{fill:url(#linear-gradient-146);}.cls-152{fill:url(#linear-gradient-147);}.cls-153{fill:url(#linear-gradient-148);}.cls-154{fill:url(#linear-gradient-149);}.cls-155{fill:url(#linear-gradient-150);}.cls-156{fill:url(#linear-gradient-151);}.cls-157{fill:url(#linear-gradient-152);}.cls-158{fill:url(#linear-gradient-153);}.cls-159{fill:url(#linear-gradient-154);}.cls-160{fill:url(#linear-gradient-155);}.cls-161{fill:url(#linear-gradient-156);}</style><linearGradient id="linear-gradient" x1="1250" y1="1659.61" x2="1250" y2="5.5" gradientUnits="userSpaceOnUse"><stop offset="0.56" stop-color="#fff8ae"/><stop offset="0.58" stop-color="#f7f7ad"/><stop offset="0.67" stop-color="#ccf4a8"/><stop offset="0.76" stop-color="#abf1a3"/><stop offset="0.85" stop-color="#93f0a0"/><stop offset="0.93" stop-color="#85ee9f"/><stop offset="1" stop-color="#80ee9e"/></linearGradient><linearGradient id="linear-gradient-2" x1="552.56" y1="1520.39" x2="552.56" y2="395.17" gradientUnits="userSpaceOnUse"><stop offset="0" stop-color="#fff8cf"/><stop offset="0.14" stop-color="#f6f7cc"/><stop offset="0.37" stop-color="#def5c2"/><stop offset="0.66" stop-color="#b6f2b3"/><stop offset="1" stop-color="#80ee9e"/></linearGradient><linearGradient id="linear-gradient-3" x1="1512.18" y1="1341.51" x2="1512.18" y2="254.4" gradientUnits="userSpaceOnUse"><stop offset="0" stop-color="#d8f5bf"/><stop offset="0.16" stop-color="#bceeb8"/><stop offset="0.49" stop-color="#75dca8"/><stop offset="0.98" stop-color="#05c08d"/><stop offset="1" stop-color="#00bf8c"/></linearGradient><linearGradient id="linear-gradient-4" x1="1250.33" y1="960.09" x2="1250.33" y2="1287.08" gradientUnits="userSpaceOnUse"><stop offset="0" stop-color="#d8f5bf"/><stop offset="0.16" stop-color="#bce8b7"/><stop offset="0.49" stop-color="#75c5a1"/><stop offset="0.98" stop-color="#058e7e"/><stop offset="1" stop-color="#008c7d"/></linearGradient><linearGradient id="linear-gradient-5" x1="1098.75" y1="802.74" x2="1098.75" y2="1314.32" xlink:href="#linear-gradient-4"/><linearGradient id="linear-gradient-6" x1="1071.35" y1="845.51" x2="1071.35" y2="970.07" xlink:href="#linear-gradient-4"/><linearGradient id="linear-gradient-7" x1="1129.76" y1="802.74" x2="1129.76" y2="1314.31" xlink:href="#linear-gradient-4"/><linearGradient id="linear-gradient-8" x1="1102.36" y1="845.51" x2="1102.36" y2="970.07" xlink:href="#linear-gradient-4"/><linearGradient id="linear-gradient-9" x1="1008.95" y1="802.74" x2="1008.95" y2="1314.31" xlink:href="#linear-gradient-4"/><linearGradient id="linear-gradient-10" x1="968.97" y1="845.51" x2="968.97" y2="970.07" xlink:href="#linear-gradient-4"/><linearGradient id="linear-gradient-11" x1="911.62" y1="802.74" x2="911.62" y2="1314.31" xlink:href="#linear-gradient-4"/><linearGradient id="linear-gradient-12" x1="884.22" y1="845.51" x2="884.22" y2="970.07" xlink:href="#linear-gradient-4"/><linearGradient id="linear-gradient-13" x1="1055.98" y1="802.74" x2="1055.98" y2="1314.31" xlink:href="#linear-gradient-4"/><linearGradient id="linear-gradient-14" x1="1020.12" y1="845.51" x2="1020.12" y2="970.07" xlink:href="#linear-gradient-4"/><linearGradient id="linear-gradient-15" x1="952.26" y1="802.74" x2="952.26" y2="1314.31" xlink:href="#linear-gradient-4"/><linearGradient id="linear-gradient-16" x1="916.4" y1="845.51" x2="916.4" y2="970.07" xlink:href="#linear-gradient-4"/><linearGradient id="linear-gradient-17" x1="879.55" y1="802.74" x2="879.55" y2="1314.31" xlink:href="#linear-gradient-4"/><linearGradient id="linear-gradient-18" x1="843.69" y1="845.51" x2="843.69" y2="970.07" xlink:href="#linear-gradient-4"/><linearGradient id="linear-gradient-19" x1="842.12" y1="802.74" x2="842.12" y2="1314.31" xlink:href="#linear-gradient-4"/><linearGradient id="linear-gradient-20" x1="806.26" y1="845.51" x2="806.26" y2="970.07" xlink:href="#linear-gradient-4"/><linearGradient id="linear-gradient-21" x1="795.07" y1="802.74" x2="795.07" y2="1314.31" xlink:href="#linear-gradient-4"/><linearGradient id="linear-gradient-22" x1="759.21" y1="845.51" x2="759.21" y2="970.07" xlink:href="#linear-gradient-4"/><linearGradient id="linear-gradient-23" x1="730.91" y1="802.74" x2="730.91" y2="1314.31" xlink:href="#linear-gradient-4"/><linearGradient id="linear-gradient-24" x1="695.05" y1="845.51" x2="695.05" y2="970.07" xlink:href="#linear-gradient-4"/><linearGradient id="linear-gradient-25" x1="668.68" y1="832.84" x2="668.68" y2="1405.45" xlink:href="#linear-gradient-4"/><linearGradient id="linear-gradient-26" x1="635.17" y1="880.72" x2="635.17" y2="1020.13" xlink:href="#linear-gradient-4"/><linearGradient id="linear-gradient-27" x1="613.29" y1="861.47" x2="613.29" y2="1430" xlink:href="#linear-gradient-4"/><linearGradient id="linear-gradient-28" x1="577.43" y1="909" x2="577.43" y2="1047.43" xlink:href="#linear-gradient-4"/><linearGradient id="linear-gradient-29" x1="561.96" y1="883.76" x2="561.96" y2="1430.62" xlink:href="#linear-gradient-4"/><linearGradient id="linear-gradient-30" x1="526.1" y1="929.49" x2="526.1" y2="1062.63" xlink:href="#linear-gradient-4"/><linearGradient id="linear-gradient-31" x1="525.61" y1="855.12" x2="525.61" y2="1429.82" xlink:href="#linear-gradient-4"/><linearGradient id="linear-gradient-32" x1="489.74" y1="903.17" x2="489.74" y2="1043.09" xlink:href="#linear-gradient-4"/><linearGradient id="linear-gradient-33" x1="463.59" y1="858.34" x2="463.59" y2="1429.91" xlink:href="#linear-gradient-4"/><linearGradient id="linear-gradient-34" x1="427.72" y1="906.13" x2="427.72" y2="1045.29" xlink:href="#linear-gradient-4"/><linearGradient id="linear-gradient-35" x1="290.36" y1="867.89" x2="290.36" y2="1359.73" xlink:href="#linear-gradient-4"/><linearGradient id="linear-gradient-36" x1="259.5" y1="909.02" x2="259.5" y2="1028.77" xlink:href="#linear-gradient-4"/><linearGradient id="linear-gradient-37" x1="183.42" y1="937.41" x2="183.42" y2="1326.4" xlink:href="#linear-gradient-4"/><linearGradient id="linear-gradient-38" x1="159.02" y1="969.93" x2="159.02" y2="1064.64" xlink:href="#linear-gradient-4"/><linearGradient id="linear-gradient-39" x1="416.54" y1="818.61" x2="416.54" y2="1428.8" xlink:href="#linear-gradient-4"/><linearGradient id="linear-gradient-40" x1="380.68" y1="869.63" x2="380.68" y2="1018.19" xlink:href="#linear-gradient-4"/><linearGradient id="linear-gradient-41" x1="363.08" y1="883.76" x2="363.08" y2="1430.63" xlink:href="#linear-gradient-4"/><linearGradient id="linear-gradient-42" x1="318.51" y1="929.49" x2="318.51" y2="1062.63" xlink:href="#linear-gradient-4"/><linearGradient id="linear-gradient-43" x1="228.34" y1="762.32" x2="228.34" y2="1427.21" xlink:href="#linear-gradient-4"/><linearGradient id="linear-gradient-44" x1="192.48" y1="817.91" x2="192.48" y2="979.8" xlink:href="#linear-gradient-4"/><linearGradient id="linear-gradient-45" x1="127.82" y1="844.89" x2="127.82" y2="1429.53" xlink:href="#linear-gradient-4"/><linearGradient id="linear-gradient-46" x1="91.96" y1="893.77" x2="91.96" y2="1036.12" xlink:href="#linear-gradient-4"/><linearGradient id="linear-gradient-47" x1="63.41" y1="820.06" x2="63.41" y2="1428.84" xlink:href="#linear-gradient-4"/><linearGradient id="linear-gradient-48" x1="27.55" y1="870.96" x2="27.55" y2="1019.18" xlink:href="#linear-gradient-4"/><linearGradient id="linear-gradient-49" x1="1524.34" y1="921.82" x2="1524.34" y2="1243.26" xlink:href="#linear-gradient-4"/><linearGradient id="linear-gradient-50" x1="1496.94" y1="948.69" x2="1496.94" y2="1026.95" xlink:href="#linear-gradient-4"/><linearGradient id="linear-gradient-51" x1="1449.48" y1="982.06" x2="1449.48" y2="1303.51" xlink:href="#linear-gradient-4"/><linearGradient id="linear-gradient-52" x1="1422.09" y1="1008.94" x2="1422.09" y2="1087.2" xlink:href="#linear-gradient-4"/><linearGradient id="linear-gradient-53" x1="1285.88" y1="982.06" x2="1285.88" y2="1303.51" xlink:href="#linear-gradient-4"/><linearGradient id="linear-gradient-54" x1="1258.48" y1="1008.94" x2="1258.48" y2="1087.2" xlink:href="#linear-gradient-4"/><linearGradient id="linear-gradient-55" x1="1248.45" y1="982.06" x2="1248.45" y2="1303.51" xlink:href="#linear-gradient-4"/><linearGradient id="linear-gradient-56" x1="1221.06" y1="1008.94" x2="1221.06" y2="1087.2" xlink:href="#linear-gradient-4"/><linearGradient id="linear-gradient-57" x1="1208.89" y1="982.06" x2="1208.89" y2="1303.51" xlink:href="#linear-gradient-4"/><linearGradient id="linear-gradient-58" x1="1181.49" y1="1008.94" x2="1181.49" y2="1087.2" xlink:href="#linear-gradient-4"/><linearGradient id="linear-gradient-59" x1="1335.07" y1="982.06" x2="1335.07" y2="1303.51" xlink:href="#linear-gradient-4"/><linearGradient id="linear-gradient-60" x1="1307.67" y1="1008.94" x2="1307.67" y2="1087.2" xlink:href="#linear-gradient-4"/><linearGradient id="linear-gradient-61" x1="1489.05" y1="982.06" x2="1489.05" y2="1303.51" xlink:href="#linear-gradient-4"/><linearGradient id="linear-gradient-62" x1="1461.65" y1="1008.94" x2="1461.65" y2="1087.2" xlink:href="#linear-gradient-4"/><linearGradient id="linear-gradient-63" x1="1379.98" y1="982.06" x2="1379.98" y2="1303.51" xlink:href="#linear-gradient-4"/><linearGradient id="linear-gradient-64" x1="1344.12" y1="1008.94" x2="1344.12" y2="1087.2" xlink:href="#linear-gradient-4"/><linearGradient id="linear-gradient-65" x1="1165.05" y1="982.06" x2="1165.05" y2="1303.51" xlink:href="#linear-gradient-4"/><linearGradient id="linear-gradient-66" x1="1129.19" y1="1008.94" x2="1129.19" y2="1087.2" xlink:href="#linear-gradient-4"/><linearGradient id="linear-gradient-67" x1="1668.69" y1="1025.96" x2="1668.69" y2="1347.4" xlink:href="#linear-gradient-4"/><linearGradient id="linear-gradient-68" x1="1641.29" y1="1052.84" x2="1641.29" y2="1131.1" xlink:href="#linear-gradient-4"/><linearGradient id="linear-gradient-69" x1="1639.82" y1="1025.96" x2="1639.82" y2="1347.41" xlink:href="#linear-gradient-4"/><linearGradient id="linear-gradient-70" x1="1612.42" y1="1052.84" x2="1612.42" y2="1131.1" xlink:href="#linear-gradient-4"/><linearGradient id="linear-gradient-71" x1="1881.48" y1="1025.96" x2="1881.48" y2="1347.4" xlink:href="#linear-gradient-4"/><linearGradient id="linear-gradient-72" x1="1854.09" y1="1052.84" x2="1854.09" y2="1131.1" xlink:href="#linear-gradient-4"/><linearGradient id="linear-gradient-73" x1="1839.78" y1="1025.96" x2="1839.78" y2="1347.4" xlink:href="#linear-gradient-4"/><linearGradient id="linear-gradient-74" x1="1812.38" y1="1052.84" x2="1812.38" y2="1131.1" xlink:href="#linear-gradient-4"/><linearGradient id="linear-gradient-75" x1="1778.83" y1="1025.96" x2="1778.83" y2="1347.4" xlink:href="#linear-gradient-4"/><linearGradient id="linear-gradient-76" x1="1751.43" y1="1052.84" x2="1751.43" y2="1131.1" xlink:href="#linear-gradient-4"/><linearGradient id="linear-gradient-77" x1="1723.23" y1="1025.96" x2="1723.23" y2="1347.4" xlink:href="#linear-gradient-4"/><linearGradient id="linear-gradient-78" x1="1687.37" y1="1052.84" x2="1687.37" y2="1131.1" xlink:href="#linear-gradient-4"/><linearGradient id="linear-gradient-79" x1="1569.25" y1="1025.96" x2="1569.25" y2="1347.4" xlink:href="#linear-gradient-4"/><linearGradient id="linear-gradient-80" x1="1533.39" y1="1052.84" x2="1533.39" y2="1131.1" xlink:href="#linear-gradient-4"/><linearGradient id="linear-gradient-81" x1="2224.65" y1="1025.96" x2="2224.65" y2="1347.4" xlink:href="#linear-gradient-4"/><linearGradient id="linear-gradient-82" x1="2197.24" y1="1052.84" x2="2197.24" y2="1131.1" xlink:href="#linear-gradient-4"/><linearGradient id="linear-gradient-83" x1="2027.98" y1="1025.96" x2="2027.98" y2="1347.4" xlink:href="#linear-gradient-4"/><linearGradient id="linear-gradient-84" x1="1994.41" y1="1052.84" x2="1994.41" y2="1131.1" xlink:href="#linear-gradient-4"/><linearGradient id="linear-gradient-85" x1="2078.24" y1="1025.96" x2="2078.24" y2="1347.4" xlink:href="#linear-gradient-4"/><linearGradient id="linear-gradient-86" x1="2031.26" y1="1052.84" x2="2031.26" y2="1131.1" xlink:href="#linear-gradient-4"/><linearGradient id="linear-gradient-87" x1="1928.53" y1="1025.96" x2="1928.53" y2="1347.4" xlink:href="#linear-gradient-4"/><linearGradient id="linear-gradient-88" x1="1894.97" y1="1052.84" x2="1894.97" y2="1131.1" xlink:href="#linear-gradient-4"/><linearGradient id="linear-gradient-89" x1="1952.07" y1="1025.96" x2="1952.07" y2="1347.4" xlink:href="#linear-gradient-4"/><linearGradient id="linear-gradient-90" x1="1905.08" y1="1052.84" x2="1905.08" y2="1131.1" xlink:href="#linear-gradient-4"/><linearGradient id="linear-gradient-91" x1="2242.04" y1="1025.96" x2="2242.04" y2="1347.4" xlink:href="#linear-gradient-4"/><linearGradient id="linear-gradient-92" x1="2212.35" y1="1052.84" x2="2212.35" y2="1131.1" xlink:href="#linear-gradient-4"/><linearGradient id="linear-gradient-93" x1="2393.36" y1="1025.96" x2="2393.36" y2="1347.4" xlink:href="#linear-gradient-4"/><linearGradient id="linear-gradient-94" x1="2368.11" y1="1052.84" x2="2368.11" y2="1131.1" xlink:href="#linear-gradient-4"/><linearGradient id="linear-gradient-95" x1="2457.66" y1="1025.96" x2="2457.66" y2="1347.4" xlink:href="#linear-gradient-4"/><linearGradient id="linear-gradient-96" x1="2441.17" y1="1052.84" x2="2441.17" y2="1131.1" xlink:href="#linear-gradient-4"/><linearGradient id="linear-gradient-97" x1="2149.8" y1="1025.96" x2="2149.8" y2="1347.4" xlink:href="#linear-gradient-4"/><linearGradient id="linear-gradient-98" x1="2127.34" y1="1052.84" x2="2127.34" y2="1131.1" xlink:href="#linear-gradient-4"/><linearGradient id="linear-gradient-99" x1="2329.52" y1="1025.96" x2="2329.52" y2="1347.4" xlink:href="#linear-gradient-4"/><linearGradient id="linear-gradient-100" x1="2295.96" y1="1052.84" x2="2295.96" y2="1131.1" xlink:href="#linear-gradient-4"/><linearGradient id="linear-gradient-101" x1="2117.8" y1="1025.96" x2="2117.8" y2="1347.4" xlink:href="#linear-gradient-4"/><linearGradient id="linear-gradient-102" x1="2084.24" y1="1052.84" x2="2084.24" y2="1131.1" xlink:href="#linear-gradient-4"/><linearGradient id="linear-gradient-103" x1="2275.01" y1="1025.96" x2="2275.01" y2="1347.4" xlink:href="#linear-gradient-4"/><linearGradient id="linear-gradient-104" x1="2253.17" y1="1052.84" x2="2253.17" y2="1131.1" xlink:href="#linear-gradient-4"/><linearGradient id="linear-gradient-105" x1="2179.82" y1="1025.96" x2="2179.82" y2="1347.4" xlink:href="#linear-gradient-4"/><linearGradient id="linear-gradient-106" x1="2146.26" y1="1052.84" x2="2146.26" y2="1131.1" xlink:href="#linear-gradient-4"/><linearGradient id="linear-gradient-107" x1="-77.13" y1="1435.28" x2="2705.64" y2="1435.28" gradientUnits="userSpaceOnUse"><stop offset="0" stop-color="#004042"/><stop offset="1" stop-color="#00181b"/></linearGradient><linearGradient id="linear-gradient-108" x1="-77.13" y1="1465.3" x2="2705.64" y2="1465.3" xlink:href="#linear-gradient-107"/><linearGradient id="linear-gradient-109" x1="-77.13" y1="1479.55" x2="2705.64" y2="1479.55" xlink:href="#linear-gradient-107"/><linearGradient id="linear-gradient-110" x1="-77.13" y1="1488.4" x2="2705.65" y2="1488.4" xlink:href="#linear-gradient-107"/><linearGradient id="linear-gradient-111" x1="-77.13" y1="1477.24" x2="2705.64" y2="1477.24" xlink:href="#linear-gradient-107"/><linearGradient id="linear-gradient-112" x1="-77.13" y1="1506.11" x2="2705.65" y2="1506.11" xlink:href="#linear-gradient-107"/><linearGradient id="linear-gradient-113" x1="-77.12" y1="1511.88" x2="2705.65" y2="1511.88" xlink:href="#linear-gradient-107"/><linearGradient id="linear-gradient-114" x1="-77.13" y1="1512.27" x2="2705.64" y2="1512.27" xlink:href="#linear-gradient-107"/><linearGradient id="linear-gradient-115" x1="-77.13" y1="1476.08" x2="2705.65" y2="1476.08" xlink:href="#linear-gradient-107"/><linearGradient id="linear-gradient-116" x1="-77.13" y1="1510.34" x2="2705.64" y2="1510.34" xlink:href="#linear-gradient-107"/><linearGradient id="linear-gradient-117" x1="-77.13" y1="1447.98" x2="2705.64" y2="1447.98" xlink:href="#linear-gradient-107"/><linearGradient id="linear-gradient-118" x1="-77.13" y1="1440.67" x2="2705.64" y2="1440.67" xlink:href="#linear-gradient-107"/><linearGradient id="linear-gradient-119" x1="-77.13" y1="1470.69" x2="2705.65" y2="1470.69" xlink:href="#linear-gradient-107"/><linearGradient id="linear-gradient-120" x1="-77.13" y1="1384.85" x2="2705.64" y2="1384.85" xlink:href="#linear-gradient-107"/><linearGradient id="linear-gradient-121" x1="-77.13" y1="1395.24" x2="2705.64" y2="1395.24" xlink:href="#linear-gradient-107"/><linearGradient id="linear-gradient-122" x1="-77.13" y1="1394.86" x2="2705.64" y2="1394.86" xlink:href="#linear-gradient-107"/><linearGradient id="linear-gradient-123" x1="-77.13" y1="1400.63" x2="2705.65" y2="1400.63" xlink:href="#linear-gradient-107"/><linearGradient id="linear-gradient-124" x1="-77.13" y1="1422.96" x2="2705.65" y2="1422.96" xlink:href="#linear-gradient-107"/><linearGradient id="linear-gradient-125" x1="-77.13" y1="1428.35" x2="2705.65" y2="1428.35" xlink:href="#linear-gradient-107"/><linearGradient id="linear-gradient-126" x1="-77.13" y1="1495.71" x2="2705.65" y2="1495.71" xlink:href="#linear-gradient-107"/><linearGradient id="linear-gradient-127" x1="-77.12" y1="1489.17" x2="2705.65" y2="1489.17" xlink:href="#linear-gradient-107"/><linearGradient id="linear-gradient-128" x1="-77.13" y1="1491.48" x2="2705.64" y2="1491.48" xlink:href="#linear-gradient-107"/><linearGradient id="linear-gradient-129" x1="-77.13" y1="1485.71" x2="2705.65" y2="1485.71" xlink:href="#linear-gradient-107"/><linearGradient id="linear-gradient-130" x1="-77.13" y1="1476.47" x2="2705.64" y2="1476.47" xlink:href="#linear-gradient-107"/><linearGradient id="linear-gradient-131" x1="1663.91" y1="1442.59" x2="1746.8" y2="1442.59" xlink:href="#linear-gradient-107"/><linearGradient id="linear-gradient-132" x1="-77.12" y1="1474.16" x2="2705.65" y2="1474.16" xlink:href="#linear-gradient-107"/><linearGradient id="linear-gradient-133" x1="1760.86" y1="1433.35" x2="1864.5" y2="1433.35" xlink:href="#linear-gradient-107"/><linearGradient id="linear-gradient-134" x1="-77.14" y1="1430.27" x2="2705.64" y2="1430.27" xlink:href="#linear-gradient-107"/><linearGradient id="linear-gradient-135" x1="-77.13" y1="1411.8" x2="2705.64" y2="1411.8" xlink:href="#linear-gradient-107"/><linearGradient id="linear-gradient-136" x1="1886.33" y1="1434.89" x2="2007.74" y2="1434.89" xlink:href="#linear-gradient-107"/><linearGradient id="linear-gradient-137" x1="-77.12" y1="1432.58" x2="2705.65" y2="1432.58" xlink:href="#linear-gradient-107"/><linearGradient id="linear-gradient-138" x1="-77.13" y1="1457.22" x2="2705.65" y2="1457.22" xlink:href="#linear-gradient-107"/><linearGradient id="linear-gradient-139" x1="2046.01" y1="1411.8" x2="2201.28" y2="1411.8" xlink:href="#linear-gradient-107"/><linearGradient id="linear-gradient-140" x1="-77.13" y1="1434.89" x2="2705.64" y2="1434.89" xlink:href="#linear-gradient-107"/><linearGradient id="linear-gradient-141" x1="2194.29" y1="1481.86" x2="2316.2" y2="1481.86" xlink:href="#linear-gradient-107"/><linearGradient id="linear-gradient-142" x1="2299.79" y1="1441.82" x2="2409.97" y2="1441.82" xlink:href="#linear-gradient-107"/><linearGradient id="linear-gradient-143" x1="2368.23" y1="1456.45" x2="2473.39" y2="1456.45" xlink:href="#linear-gradient-107"/><linearGradient id="linear-gradient-144" x1="-77.13" y1="1408.66" x2="2705.64" y2="1408.66" xlink:href="#linear-gradient-107"/><linearGradient id="linear-gradient-145" x1="477.69" y1="1397.17" x2="436.83" y2="1397.17" xlink:href="#linear-gradient-107"/><linearGradient id="linear-gradient-146" x1="-77.13" y1="1382.54" x2="2705.64" y2="1382.54" xlink:href="#linear-gradient-107"/><linearGradient id="linear-gradient-147" x1="-77.13" y1="1366.76" x2="2705.64" y2="1366.76" xlink:href="#linear-gradient-107"/><linearGradient id="linear-gradient-148" x1="650" y1="1372.53" x2="483.13" y2="1372.53" xlink:href="#linear-gradient-107"/><linearGradient id="linear-gradient-149" x1="-77.13" y1="1413.34" x2="2705.65" y2="1413.34" xlink:href="#linear-gradient-107"/><linearGradient id="linear-gradient-150" x1="139.79" y1="1397.27" x2="62.68" y2="1397.27" xlink:href="#linear-gradient-107"/><linearGradient id="linear-gradient-151" x1="77.81" y1="1373.01" x2="-16.02" y2="1373.01" xlink:href="#linear-gradient-107"/><linearGradient id="linear-gradient-152" x1="-77.13" y1="1429.45" x2="2705.65" y2="1429.45" xlink:href="#linear-gradient-107"/><linearGradient id="linear-gradient-153" x1="212.26" y1="1445.14" x2="109.6" y2="1434.44" xlink:href="#linear-gradient-107"/><linearGradient id="linear-gradient-154" x1="402.84" y1="1415.26" x2="340.78" y2="1415.26" xlink:href="#linear-gradient-107"/><linearGradient id="linear-gradient-155" x1="259.55" y1="1434.12" x2="176.92" y2="1434.12" xlink:href="#linear-gradient-107"/><linearGradient id="linear-gradient-156" x1="347.24" y1="1442.98" x2="263.72" y2="1442.98" xlink:href="#linear-gradient-107"/></defs><g class="cls-1"><g id="BACKGROUND"><rect class="cls-2" width="2500" height="1600"/></g><g id="OBJECT"><path class="cls-3" d="M264.5,398.61s-21.61-9.69-32.05,0c0,0,20.13-3,32.05,11.92,11.93-14.9,32.05-11.92,32.05-11.92C286.12,388.92,264.5,398.61,264.5,398.61Z" transform="translate(0)"/><path class="cls-3" d="M224.94,477.74s-21.62-9.69-32.05,0c0,0,20.12-3,32.05,11.92,11.92-14.9,32.05-11.92,32.05-11.92C246.55,468.05,224.94,477.74,224.94,477.74Z" transform="translate(0)"/><path class="cls-3" d="M443.8,206.75s-8.64-3.86-12.8,0c0,0,8-1.19,12.8,4.77,4.76-6,12.79-4.77,12.79-4.77C452.43,202.89,443.8,206.75,443.8,206.75Z" transform="translate(0)"/><path class="cls-3" d="M122.9,343.24s-30-13.43-44.43,0c0,0,27.9-4.13,44.43,16.53,16.53-20.66,44.43-16.53,44.43-16.53C152.86,329.81,122.9,343.24,122.9,343.24Z" transform="translate(0)"/><path class="cls-3" d="M390.23,151.84s-30-13.44-44.43,0c0,0,27.89-4.14,44.43,16.53,16.53-20.67,44.43-16.53,44.43-16.53C420.19,138.4,390.23,151.84,390.23,151.84Z" transform="translate(0)"/><path class="cls-3" d="M879.62,352.29s-59.3-26.58-87.92,0c0,0,55.2-8.17,87.92,32.72,32.71-40.89,87.92-32.72,87.92-32.72C938.91,325.71,879.62,352.29,879.62,352.29Z" transform="translate(0)"/><path class="cls-3" d="M1013.64,159.23s-29.49-13.22-43.72,0c0,0,27.45-4.07,43.72,16.26,16.27-20.33,43.72-16.26,43.72-16.26C1043.13,146,1013.64,159.23,1013.64,159.23Z" transform="translate(0)"/><path class="cls-3" d="M1254.23,254.39s-29.48-13.21-43.72,0c0,0,27.45-4.06,43.72,16.27,16.27-20.33,43.72-16.27,43.72-16.27C1283.72,241.18,1254.23,254.39,1254.23,254.39Z" transform="translate(0)"/><path class="cls-3" d="M1623.83,251.43s-14.61-6.55-21.66,0c0,0,13.6-2,21.66,8.06,8.05-10.08,21.65-8.06,21.65-8.06C1638.43,244.88,1623.83,251.43,1623.83,251.43Z" transform="translate(0)"/><path class="cls-3" d="M1405.75,209.94s-21-9.43-31.21,0c0,0,19.6-2.9,31.21,11.61C1417.37,207,1437,209.94,1437,209.94,1426.8,200.51,1405.75,209.94,1405.75,209.94Z" transform="translate(0)"/><path class="cls-3" d="M2077.15,356.24s-46.93-21-69.58,0c0,0,43.69-6.47,69.58,25.89,25.88-32.36,69.57-25.89,69.57-25.89C2124.07,335.21,2077.15,356.24,2077.15,356.24Z" transform="translate(0)"/><path class="cls-3" d="M2066.78,177.1s-27.94-12.53-41.44,0c0,0,26-3.86,41.44,15.42,15.42-19.28,41.44-15.42,41.44-15.42C2094.73,164.57,2066.78,177.1,2066.78,177.1Z" transform="translate(0)"/><path class="cls-3" d="M2380.09,317.18s-28-12.53-41.44,0c0,0,26-3.86,41.44,15.42,15.42-19.28,41.44-15.42,41.44-15.42C2408,304.65,2380.09,317.18,2380.09,317.18Z" transform="translate(0)"/><path class="cls-4" d="M1105.11,790.68s-57.55-67.42-72.35-105.23-28-103.59-72.35-120-98-37.81-98-37.81L791.05,475l-32.88-24.66H718.71S699,468.4,671,470.05s-103.59,37.81-103.59,37.81-74,51-87.14,57.55-113.46,36.18-113.46,36.18l-148,47.68L0,761.08v535.29H1105.11Z" transform="translate(0)"/><path class="cls-5" d="M844.49,804.73c27.13,17.27,96.19,78.93,91.26,108.52s-73.38,78.93-73.38,78.93l-30.21,71.52-128.25,61.66-210.07,171h611.27V1053s-57.55-67.42-72.35-105.24-28-103.59-72.35-120-98-37.82-98-37.82l-71.32-52.61S817.36,787.47,844.49,804.73Z" transform="translate(0)"/><path class="cls-6" d="M480.29,565.41c-13.16,6.58-113.46,36.18-113.46,36.18l-148,47.68,88.79-6.58L511.53,598.3l51-32.89,54.26-57.55,76.31-42.61a75.57,75.57,0,0,1-22.05,4.8c-27.95,1.64-103.59,37.81-103.59,37.81Z" transform="translate(0)"/><polygon class="cls-7" points="2499.4 508.41 2500 350.01 2295.24 478.27 2042.02 465.11 1805.25 632.83 1667.13 527.6 1644.11 488.13 1279.08 685.45 1114.65 665.72 851.57 853.16 524.36 1053.76 524.36 1376.04 2499.4 1376.04 2499.4 508.41"/><path class="cls-5" d="M1629.31,678.05l-66.59,51.79L1508.46,826v79.21l-69.06,118.1-45.22,79.75L1562.72,937l105.57-159.49,137-144.7L1667.13,527.6C1676.17,594.19,1629.31,678.05,1629.31,678.05Z" transform="translate(0)"/><path class="cls-5" d="M2499.4,508.41,2500,350S2341.28,452,2295.24,478.27a98.05,98.05,0,0,1-12.47,5.88s-61.52,78-105.92,112.51-177.58,130.72-177.58,130.72S1917.88,863,1863.62,895.09s-222,158.67-222,158.67L1404.87,1376H2499.4Z" transform="translate(0)"/><path class="cls-8" d="M2038,1115c-159.53-2.92-320.13,8.91-475.39,47.12-197.7,48.66-365.17,120.41-575,96.79-82.82-9.31-162.29-30.49-240.13-59.82-74.32-28-153.92-35.2-228.49-62.85-104.61-38.8-184.9,98.63-297.77,87.1C147.87,1215.85,73.21,1228,0,1230.16V1600H2500.65V1087.39C2500.65,1103.32,2082.65,1115.82,2038,1115Z" transform="translate(0)"/><polygon class="cls-9" points="1153.53 1448.87 1098.74 1204.1 1043.97 1448.87 1153.53 1448.87"/><polygon class="cls-10" points="1073.85 1448.87 1098.74 1204.1 1043.97 1448.87 1073.85 1448.87"/><polygon class="cls-11" points="1184.54 1448.87 1129.75 1205.17 1074.98 1448.87 1184.54 1448.87"/><polygon class="cls-12" points="1104.86 1448.87 1129.75 1205.17 1074.98 1448.87 1104.86 1448.87"/><polygon class="cls-13" points="1088.87 1448.87 1008.91 1104.65 929.03 1448.87 1088.87 1448.87"/><polygon class="cls-14" points="972.63 1448.87 1008.91 1104.65 929.03 1448.87 972.63 1448.87"/><polygon class="cls-15" points="966.41 1448.87 911.61 1199.82 856.84 1448.87 966.41 1448.87"/><polygon class="cls-16" points="886.73 1448.87 911.61 1199.82 856.84 1448.87 886.73 1448.87"/><polygon class="cls-17" points="1127.69 1448.87 1055.96 1141.01 984.28 1448.87 1127.69 1448.87"/><polygon class="cls-18" points="1023.39 1448.87 1055.96 1141.01 984.28 1448.87 1023.39 1448.87"/><polygon class="cls-19" points="1023.97 1448.87 952.24 1147.42 880.55 1448.87 1023.97 1448.87"/><polygon class="cls-20" points="919.67 1448.87 952.24 1147.42 880.55 1448.87 919.67 1448.87"/><polygon class="cls-21" points="951.25 1448.87 879.53 1131.39 807.84 1448.87 951.25 1448.87"/><polygon class="cls-22" points="846.96 1448.87 879.53 1131.39 807.84 1448.87 846.96 1448.87"/><polygon class="cls-23" points="913.83 1448.87 842.1 1105.72 770.42 1448.87 913.83 1448.87"/><polygon class="cls-24" points="809.53 1448.87 842.1 1105.72 770.42 1448.87 809.53 1448.87"/><polygon class="cls-25" points="866.78 1448.87 795.05 1011.62 723.37 1448.87 866.78 1448.87"/><polygon class="cls-26" points="762.48 1448.87 795.05 1011.62 723.37 1448.87 762.48 1448.87"/><polygon class="cls-27" points="802.62 1448.87 730.89 1099.31 659.21 1448.87 802.62 1448.87"/><polygon class="cls-28" points="698.33 1448.87 730.89 1099.31 659.21 1448.87 698.33 1448.87"/><polygon class="cls-29" points="738.03 1484.25 671.01 966.11 599.33 1484.25 738.03 1484.25"/><polygon class="cls-30" points="638.44 1484.25 671.01 966.11 599.33 1484.25 638.44 1484.25"/><polygon class="cls-31" points="685 1446.44 613.27 922.48 541.59 1446.44 685 1446.44"/><polygon class="cls-32" points="580.7 1446.44 613.27 922.48 541.59 1446.44 580.7 1446.44"/><polygon class="cls-33" points="633.67 1446.44 561.94 887.58 490.26 1446.44 633.67 1446.44"/><polygon class="cls-34" points="529.38 1446.44 561.94 887.58 490.26 1446.44 529.38 1446.44"/><polygon class="cls-35" points="597.31 1446.44 525.59 931.21 453.9 1446.44 597.31 1446.44"/><polygon class="cls-36" points="493.02 1446.44 525.59 931.21 453.9 1446.44 493.02 1446.44"/><polygon class="cls-37" points="535.29 1446.44 463.57 926.84 391.88 1446.44 535.29 1446.44"/><polygon class="cls-38" points="431 1446.44 463.57 926.84 391.88 1446.44 431 1446.44"/><polygon class="cls-39" points="352.06 1373.95 290.34 926.84 228.65 1373.95 352.06 1373.95"/><polygon class="cls-40" points="262.31 1373.95 290.34 926.84 228.65 1373.95 262.31 1373.95"/><polygon class="cls-41" points="232.22 1337.65 183.41 984.03 134.62 1337.65 232.22 1337.65"/><polygon class="cls-42" points="161.24 1337.65 183.41 984.03 134.62 1337.65 161.24 1337.65"/><polygon class="cls-43" points="488.24 1446.44 416.52 973.38 344.83 1446.44 488.24 1446.44"/><polygon class="cls-44" points="383.95 1446.44 416.52 973.38 344.83 1446.44 383.95 1446.44"/><polygon class="cls-45" points="452.18 1446.44 363.05 887.58 273.97 1446.44 452.18 1446.44"/><polygon class="cls-46" points="322.58 1446.44 363.05 887.58 273.97 1446.44 322.58 1446.44"/><polygon class="cls-47" points="300.05 1446.44 228.32 1019.91 156.63 1446.44 300.05 1446.44"/><polygon class="cls-48" points="195.75 1446.44 228.32 1019.91 156.63 1446.44 195.75 1446.44"/><polygon class="cls-49" points="199.53 1446.44 127.81 944.29 56.12 1446.44 199.53 1446.44"/><polygon class="cls-50" points="95.24 1446.44 127.81 944.29 56.12 1446.44 95.24 1446.44"/><polygon class="cls-51" points="4.28 1446.44 122.54 1446.44 50.81 971.92 4.28 1142.28 4.28 1446.44"/><polygon class="cls-52" points="4.28 1142.28 4.28 1446.44 18.25 1446.44 50.81 971.92 4.28 1142.28"/><polygon class="cls-53" points="1579.12 1252.56 1524.32 1017.46 1469.55 1252.56 1579.12 1252.56"/><polygon class="cls-54" points="1499.44 1252.56 1524.32 1017.46 1469.55 1252.56 1499.44 1252.56"/><polygon class="cls-55" points="1504.27 1363.87 1449.47 1153.63 1394.7 1363.87 1504.27 1363.87"/><polygon class="cls-56" points="1424.59 1363.87 1449.47 1153.63 1394.7 1363.87 1424.59 1363.87"/><polygon class="cls-57" points="1340.66 1361.18 1285.87 1166.39 1231.1 1361.18 1340.66 1361.18"/><polygon class="cls-58" points="1260.98 1361.18 1285.87 1166.39 1231.1 1361.18 1260.98 1361.18"/><polygon class="cls-59" points="1303.24 1388.06 1248.44 1173.78 1193.67 1388.06 1303.24 1388.06"/><polygon class="cls-60" points="1223.56 1388.06 1248.44 1173.78 1193.67 1388.06 1223.56 1388.06"/><polygon class="cls-61" points="1263.67 1388.06 1208.88 1224.17 1154.11 1388.06 1263.67 1388.06"/><polygon class="cls-62" points="1183.99 1388.06 1208.88 1224.17 1154.11 1388.06 1183.99 1388.06"/><polygon class="cls-63" points="1389.85 1388.06 1335.05 1122.72 1280.29 1388.06 1389.85 1388.06"/><polygon class="cls-64" points="1310.17 1388.06 1335.05 1122.72 1280.29 1388.06 1310.17 1388.06"/><polygon class="cls-65" points="1543.83 1396.12 1489.03 1170.42 1434.27 1396.12 1543.83 1396.12"/><polygon class="cls-66" points="1464.15 1396.12 1489.03 1170.42 1434.27 1396.12 1464.15 1396.12"/><polygon class="cls-67" points="1451.69 1388.06 1379.96 1088.45 1308.28 1388.06 1451.69 1388.06"/><polygon class="cls-68" points="1347.39 1388.06 1379.96 1088.45 1308.28 1388.06 1347.39 1388.06"/><polygon class="cls-69" points="1236.76 1388.06 1165.03 1206.03 1093.35 1388.06 1236.76 1388.06"/><polygon class="cls-70" points="1132.46 1388.06 1165.03 1206.03 1093.35 1388.06 1132.46 1388.06"/><polygon class="cls-71" points="1723.47 1356.7 1668.68 1069.19 1613.91 1356.7 1723.47 1356.7"/><polygon class="cls-72" points="1643.79 1356.7 1668.68 1069.19 1613.91 1356.7 1643.79 1356.7"/><polygon class="cls-73" points="1694.6 1356.7 1639.81 1078.6 1585.04 1356.7 1694.6 1356.7"/><polygon class="cls-74" points="1614.92 1356.7 1639.81 1078.6 1585.04 1356.7 1614.92 1356.7"/><polygon class="cls-75" points="1936.27 1356.7 1881.47 981.17 1826.7 1356.7 1936.27 1356.7"/><polygon class="cls-76" points="1856.59 1356.7 1881.47 981.17 1826.7 1356.7 1856.59 1356.7"/><polygon class="cls-77" points="1894.56 1356.7 1839.77 999.31 1785 1356.7 1894.56 1356.7"/><polygon class="cls-78" points="1814.88 1356.7 1839.77 999.31 1785 1356.7 1814.88 1356.7"/><polygon class="cls-79" points="1833.61 1356.7 1778.82 998.64 1724.05 1356.7 1833.61 1356.7"/><polygon class="cls-80" points="1753.93 1356.7 1778.82 998.64 1724.05 1356.7 1753.93 1356.7"/><polygon class="cls-81" points="1794.94 1356.7 1723.21 1008.72 1651.53 1356.7 1794.94 1356.7"/><polygon class="cls-82" points="1690.64 1356.7 1723.21 1008.72 1651.53 1356.7 1690.64 1356.7"/><polygon class="cls-83" points="1640.95 1356.7 1569.23 1047.69 1497.55 1356.7 1640.95 1356.7"/><polygon class="cls-84" points="1536.66 1356.7 1569.23 1047.69 1497.55 1356.7 1536.66 1356.7"/><polygon class="cls-85" points="2279.47 1356.7 2224.65 1022.73 2169.83 1356.7 2279.47 1356.7"/><polygon class="cls-86" points="2199.74 1356.7 2224.65 1022.73 2169.83 1356.7 2199.74 1356.7"/><polygon class="cls-87" points="2095.09 1356.7 2027.96 1002.67 1960.87 1356.7 2095.09 1356.7"/><polygon class="cls-88" points="1997.48 1356.7 2027.96 1002.67 1960.87 1356.7 1997.48 1356.7"/><polygon class="cls-89" points="2172.18 1356.7 2078.22 977.14 1984.31 1356.7 2172.18 1356.7"/><polygon class="cls-90" points="2035.55 1356.7 2078.22 977.14 1984.31 1356.7 2035.55 1356.7"/><polygon class="cls-91" points="1995.64 1356.7 1928.51 949.59 1861.43 1356.7 1995.64 1356.7"/><polygon class="cls-92" points="1898.04 1356.7 1928.51 949.59 1861.43 1356.7 1898.04 1356.7"/><polygon class="cls-93" points="2046 1356.7 1952.04 959.67 1858.13 1356.7 2046 1356.7"/><polygon class="cls-94" points="1909.37 1356.7 1952.04 959.67 1858.13 1356.7 1909.37 1356.7"/><polygon class="cls-95" points="2301.41 1356.7 2242.04 1030.9 2182.66 1356.7 2301.41 1356.7"/><polygon class="cls-96" points="2215.05 1356.7 2242.04 1030.9 2182.66 1356.7 2215.05 1356.7"/><polygon class="cls-97" points="2443.85 1356.7 2393.36 1002.85 2342.86 1356.7 2443.85 1356.7"/><polygon class="cls-98" points="2370.41 1356.7 2393.36 1002.85 2342.86 1356.7 2370.41 1356.7"/><polygon class="cls-99" points="2499.4 1219.25 2466.42 960.51 2415.92 1356.7 2499.4 1356.7 2499.4 1219.25"/><polygon class="cls-100" points="2443.47 1356.7 2466.42 960.51 2415.92 1356.7 2443.47 1356.7"/><polygon class="cls-101" points="2194.72 1356.7 2149.8 1059.01 2104.88 1356.7 2194.72 1356.7"/><polygon class="cls-102" points="2129.38 1356.7 2149.8 1059.01 2104.88 1356.7 2129.38 1356.7"/><polygon class="cls-103" points="2396.63 1356.7 2329.5 1071.21 2262.42 1356.7 2396.63 1356.7"/><polygon class="cls-104" points="2299.03 1356.7 2329.5 1071.21 2262.42 1356.7 2299.03 1356.7"/><polygon class="cls-105" points="2184.91 1356.7 2117.78 1034.25 2050.69 1356.7 2184.91 1356.7"/><polygon class="cls-106" points="2087.3 1356.7 2117.78 1034.25 2050.69 1356.7 2087.3 1356.7"/><polygon class="cls-107" points="2318.68 1356.7 2275.01 1067.16 2231.34 1356.7 2318.68 1356.7"/><polygon class="cls-108" points="2255.16 1356.7 2275.01 1067.16 2231.34 1356.7 2255.16 1356.7"/><polygon class="cls-109" points="2246.93 1356.7 2179.8 1082.63 2112.71 1356.7 2246.93 1356.7"/><polygon class="cls-110" points="2149.32 1356.7 2179.8 1082.63 2112.71 1356.7 2149.32 1356.7"/><polygon class="cls-111" points="768.29 1600 823.09 1270.56 877.86 1600 768.29 1600"/><polygon class="cls-112" points="847.97 1600 823.09 1270.56 877.86 1600 847.97 1600"/><polygon class="cls-113" points="925.48 1600 980.28 1330.61 1035.05 1600 925.48 1600"/><polygon class="cls-112" points="1005.16 1600 980.28 1330.61 1035.05 1600 1005.16 1600"/><polygon class="cls-114" points="1000.33 1600 1055.13 1359.09 1109.9 1600 1000.33 1600"/><polygon class="cls-112" points="1080.01 1600 1055.13 1359.09 1109.9 1600 1080.01 1600"/><polygon class="cls-115" points="1163.94 1600 1218.73 1376.8 1273.5 1600 1163.94 1600"/><polygon class="cls-112" points="1243.62 1600 1218.73 1376.8 1273.5 1600 1243.62 1600"/><polygon class="cls-116" points="1201.36 1600 1256.16 1354.47 1310.93 1600 1201.36 1600"/><polygon class="cls-112" points="1281.04 1600 1256.16 1354.47 1310.93 1600 1281.04 1600"/><polygon class="cls-117" points="1240.93 1600 1295.72 1412.22 1350.49 1600 1240.93 1600"/><polygon class="cls-112" points="1320.61 1600 1295.72 1412.22 1350.49 1600 1320.61 1600"/><polygon class="cls-118" points="1351.07 1600 1405.86 1423.77 1460.63 1600 1351.07 1600"/><polygon class="cls-112" points="1430.75 1600 1405.86 1423.77 1460.63 1600 1430.75 1600"/><polygon class="cls-119" points="1320.06 1600 1374.85 1424.54 1429.62 1600 1320.06 1600"/><polygon class="cls-112" points="1399.74 1600 1374.85 1424.54 1429.62 1600 1399.74 1600"/><polygon class="cls-120" points="1415.73 1600 1495.68 1352.16 1575.57 1600 1415.73 1600"/><polygon class="cls-112" points="1531.97 1600 1495.68 1352.16 1575.57 1600 1531.97 1600"/><polygon class="cls-121" points="1538.19 1600 1592.99 1420.68 1647.76 1600 1538.19 1600"/><polygon class="cls-112" points="1617.87 1600 1592.99 1420.68 1647.76 1600 1617.87 1600"/><polygon class="cls-122" points="1114.75 1600 1169.55 1295.96 1224.31 1600 1114.75 1600"/><polygon class="cls-112" points="1194.43 1600 1169.55 1295.96 1224.31 1600 1194.43 1600"/><polygon class="cls-123" points="797.16 1600 851.96 1281.33 906.73 1600 797.16 1600"/><polygon class="cls-112" points="876.85 1600 851.96 1281.33 906.73 1600 876.85 1600"/><polygon class="cls-124" points="960.77 1600 1015.57 1341.39 1070.33 1600 960.77 1600"/><polygon class="cls-112" points="1040.45 1600 1015.57 1341.39 1070.33 1600 1040.45 1600"/><polygon class="cls-125" points="555.5 1600 610.3 1169.7 665.07 1600 555.5 1600"/><polygon class="cls-112" points="635.18 1600 610.3 1169.7 665.07 1600 635.18 1600"/><polygon class="cls-126" points="597.2 1600 652 1190.49 706.77 1600 597.2 1600"/><polygon class="cls-112" points="676.88 1600 652 1190.49 706.77 1600 676.88 1600"/><polygon class="cls-127" points="658.15 1600 712.95 1189.72 767.72 1600 658.15 1600"/><polygon class="cls-112" points="737.84 1600 712.95 1189.72 767.72 1600 737.84 1600"/><polygon class="cls-128" points="696.83 1600 768.56 1201.26 840.24 1600 696.83 1600"/><polygon class="cls-112" points="801.13 1600 768.56 1201.26 840.24 1600 801.13 1600"/><polygon class="cls-129" points="850.81 1600 922.54 1245.92 994.22 1600 850.81 1600"/><polygon class="cls-112" points="955.11 1600 922.54 1245.92 994.22 1600 955.11 1600"/><polygon class="cls-130" points="1052.91 1600 1124.64 1256.7 1196.32 1600 1052.91 1600"/><polygon class="cls-112" points="1157.2 1600 1124.64 1256.7 1196.32 1600 1157.2 1600"/><polygon class="cls-131" points="1267.84 1600 1339.57 1391.43 1411.25 1600 1267.84 1600"/><polygon class="cls-112" points="1372.14 1600 1339.57 1391.43 1411.25 1600 1372.14 1600"/><polygon class="cls-132" points="1376.91 1600 1448.64 1378.34 1520.32 1600 1376.91 1600"/><polygon class="cls-112" points="1481.2 1600 1448.64 1378.34 1520.32 1600 1481.2 1600"/><polygon class="cls-133" points="1480.63 1600 1552.36 1382.96 1624.04 1600 1480.63 1600"/><polygon class="cls-112" points="1584.93 1600 1552.36 1382.96 1624.04 1600 1584.93 1600"/><polygon class="cls-134" points="1553.35 1600 1625.07 1371.41 1696.76 1600 1553.35 1600"/><polygon class="cls-112" points="1657.64 1600 1625.07 1371.41 1696.76 1600 1657.64 1600"/><polygon class="cls-135" points="1590.77 1600 1662.5 1352.93 1734.18 1600 1590.77 1600"/><polygon class="cls-112" points="1695.07 1600 1662.5 1352.93 1734.18 1600 1695.07 1600"/><polygon class="cls-136" points="1637.82 1600 1709.55 1285.18 1781.23 1600 1637.82 1600"/><polygon class="cls-112" points="1742.12 1600 1709.55 1285.18 1781.23 1600 1742.12 1600"/><polygon class="cls-137" points="1701.98 1600 1773.7 1348.32 1845.39 1600 1701.98 1600"/><polygon class="cls-112" points="1806.27 1600 1773.7 1348.32 1845.39 1600 1806.27 1600"/><polygon class="cls-138" points="1770.84 1600 1837.86 1266.71 1909.55 1600 1770.84 1600"/><polygon class="cls-112" points="1870.43 1600 1837.86 1266.71 1909.55 1600 1870.43 1600"/><polygon class="cls-139" points="1823.88 1600 1895.61 1260.55 1967.29 1600 1823.88 1600"/><polygon class="cls-112" points="1928.17 1600 1895.61 1260.55 1967.29 1600 1928.17 1600"/><polygon class="cls-140" points="1875.21 1600 1946.93 1223.59 2018.62 1600 1875.21 1600"/><polygon class="cls-112" points="1979.5 1600 1946.93 1223.59 2018.62 1600 1979.5 1600"/><polygon class="cls-141" points="1911.57 1600 1983.29 1269.79 2054.97 1600 1911.57 1600"/><polygon class="cls-112" points="2015.86 1600 1983.29 1269.79 2054.97 1600 2015.86 1600"/><polygon class="cls-142" points="1973.59 1600 2045.31 1265.17 2116.99 1600 1973.59 1600"/><polygon class="cls-112" points="2077.88 1600 2045.31 1265.17 2116.99 1600 2077.88 1600"/><polygon class="cls-143" points="2020.63 1600 2092.36 1314.44 2164.04 1600 2020.63 1600"/><polygon class="cls-112" points="2124.93 1600 2092.36 1314.44 2164.04 1600 2124.93 1600"/><polygon class="cls-144" points="2056.69 1600 2145.82 1223.59 2234.91 1600 2056.69 1600"/><polygon class="cls-112" points="2186.3 1600 2145.82 1223.59 2234.91 1600 2186.3 1600"/><polygon class="cls-145" points="2119.01 1600 2190.74 1269.79 2262.42 1600 2119.01 1600"/><polygon class="cls-146" points="2208.83 1600 2280.56 1363.71 2352.24 1600 2208.83 1600"/><polygon class="cls-112" points="2313.13 1600 2280.56 1363.71 2352.24 1600 2313.13 1600"/><polygon class="cls-147" points="2309.35 1600 2381.07 1283.64 2452.76 1600 2309.35 1600"/><polygon class="cls-112" points="2413.64 1600 2381.07 1283.64 2452.76 1600 2413.64 1600"/><polygon class="cls-148" points="2500.82 1554.64 2499.4 1554.64 2499.4 1478.44 2458.06 1312.9 2386.34 1600 2500.82 1600 2500.82 1554.64"/><polygon class="cls-112" points="2500.82 1554.64 2499.4 1554.64 2499.4 1478.44 2458.06 1312.9 2490.63 1600 2500.82 1600 2500.82 1554.64"/><polygon class="cls-149" points="212.3 1600 267.12 1217.32 321.94 1600 212.3 1600"/><polygon class="cls-112" points="292.03 1600 267.12 1217.32 321.94 1600 292.03 1600"/><polygon class="cls-150" points="396.68 1600 463.81 1194.34 530.9 1600 396.68 1600"/><polygon class="cls-112" points="494.29 1600 463.81 1194.34 530.9 1600 494.29 1600"/><polygon class="cls-151" points="319.58 1600 413.55 1165.08 507.46 1600 319.58 1600"/><polygon class="cls-112" points="456.22 1600 413.55 1165.08 507.46 1600 456.22 1600"/><polygon class="cls-152" points="496.13 1600 563.25 1133.52 630.34 1600 496.13 1600"/><polygon class="cls-112" points="593.73 1600 563.25 1133.52 630.34 1600 593.73 1600"/><polygon class="cls-153" points="445.76 1600 539.73 1145.06 633.64 1600 445.76 1600"/><polygon class="cls-112" points="582.39 1600 539.73 1145.06 633.64 1600 582.39 1600"/><polygon class="cls-154" points="190.36 1600 249.73 1226.68 309.1 1600 190.36 1600"/><polygon class="cls-112" points="276.71 1600 249.73 1226.68 309.1 1600 276.71 1600"/><polygon class="cls-155" points="47.91 1600 98.41 1194.54 148.91 1600 47.91 1600"/><polygon class="cls-112" points="121.36 1600 98.41 1194.54 148.91 1600 121.36 1600"/><polygon class="cls-156" points="0 1600 75.85 1600 25.35 1146.03 0 1360.48 0 1600"/><polygon class="cls-112" points="48.3 1600 25.35 1146.03 75.85 1600 48.3 1600"/><polygon class="cls-157" points="297.05 1600 341.97 1258.89 386.89 1600 297.05 1600"/><polygon class="cls-112" points="362.38 1600 341.97 1258.89 386.89 1600 362.38 1600"/><polygon class="cls-158" points="95.14 1600 162.26 1272.87 229.35 1600 95.14 1600"/><polygon class="cls-112" points="192.74 1600 162.26 1272.87 229.35 1600 192.74 1600"/><polygon class="cls-159" points="306.86 1600 373.99 1230.52 441.07 1600 306.86 1600"/><polygon class="cls-112" points="404.47 1600 373.99 1230.52 441.07 1600 404.47 1600"/><polygon class="cls-160" points="173.09 1600 216.76 1268.23 260.43 1600 173.09 1600"/><polygon class="cls-112" points="236.61 1600 216.76 1268.23 260.43 1600 236.61 1600"/><polygon class="cls-161" points="244.84 1600 311.97 1285.95 379.06 1600 244.84 1600"/><polygon class="cls-112" points="342.45 1600 311.97 1285.95 379.06 1600 342.45 1600"/></g></g></svg>