<svg height="512" viewBox="0 0 512 512" width="512" xmlns="http://www.w3.org/2000/svg" xmlns:xlink="http://www.w3.org/1999/xlink"><linearGradient id="New_Gradient_Swatch_9" gradientUnits="userSpaceOnUse" x1="308.686" x2="548.686" y1="460.686" y2="220.686"><stop offset=".015" stop-color="#fcd49c"/><stop offset="1" stop-color="#fef1de"/></linearGradient><linearGradient id="New_Gradient_Swatch_9-2" gradientTransform="matrix(-1 0 0 1 512 0)" x1="504" x2="353.373" xlink:href="#New_Gradient_Swatch_9" y1="416" y2="265.373"/><linearGradient id="New_Gradient_Swatch_1" gradientUnits="userSpaceOnUse" x1="176.683" x2="339.317" y1="217.317" y2="54.683"><stop offset=".015" stop-color="#72c0d6"/><stop offset="1" stop-color="#c6e6ef"/></linearGradient><linearGradient id="New_Gradient_Swatch_4" gradientUnits="userSpaceOnUse" x1="151.833" x2="348.843" y1="228.722" y2="31.712"><stop offset=".011" stop-color="#618564"/><stop offset="1" stop-color="#c0cec1"/></linearGradient><linearGradient id="New_Gradient_Swatch_4-2" x1="197.573" x2="394.582" xlink:href="#New_Gradient_Swatch_4" y1="274.461" y2="77.452"/><g id="_04-hold" data-name="04-hold"><g id="linear_color" data-name="linear color"><path d="m440 192v96l-48 56v-55.46c0-13.455-11.011-24.791-24.464-24.536a24 24 0 0 0 -23.536 23.996v208h80v-64l64-104v-168h-16a32 32 0 0 0 -32 32z" fill="url(#New_Gradient_Swatch_9)"/><path d="m72 192v96l48 56v-55.46c0-13.455 11.011-24.791 24.464-24.536a24 24 0 0 1 23.536 23.996v208h-80v-64l-64-104v-168h16a32 32 0 0 1 32 32z" fill="url(#New_Gradient_Swatch_9-2)"/><circle cx="258" cy="136" fill="url(#New_Gradient_Swatch_1)" r="115"/><path d="m297.052 177.766-6.325-38.026-36.467-12.156-29.208-5.818-23.468-22.545h16.208l20.26-16.208 40.519-4.052 1.793-55.78a115.114 115.114 0 0 0 -133.164 81.929l13.85 8.656 16 24 44.794 30.334-4.052 32.415 16.208 28.368-.241 19.549a115.858 115.858 0 0 0 47.293.255v-38.921z" fill="url(#New_Gradient_Swatch_4)"/><path d="m344.706 60.458-15.654 31.308 8 40 18.195 15.4 12.162 24.324a115.129 115.129 0 0 0 -22.7-111.035z" fill="url(#New_Gradient_Swatch_4-2)"/><path d="m488 148h-16a44.049 44.049 0 0 0 -44 44v91.561l-24 28v-23.02a36.992 36.992 0 0 0 -11.048-26.241 35.444 35.444 0 0 0 -25.643-10.3 36.18 36.18 0 0 0 -35.309 36v208a12 12 0 0 0 24 0v-208a12.057 12.057 0 0 1 11.764-12c6.607-.27 12.365 6.042 12.236 12.539v55.461a12 12 0 0 0 21.111 7.81l48-56a12 12 0 0 0 2.889-7.81v-96a20.023 20.023 0 0 1 20-20h4v152.6l-62.22 101.111a12 12 0 0 0 -1.78 6.289v64a12 12 0 0 0 24 0v-60.6l62.22-101.107a12 12 0 0 0 1.78-6.293v-168a12 12 0 0 0 -12-12z"/><path d="m144.691 252.006a35.561 35.561 0 0 0 -25.643 10.3 36.992 36.992 0 0 0 -11.048 26.235v23.02l-24-28v-91.561a44.049 44.049 0 0 0 -44-44h-16a12 12 0 0 0 -12 12v168a12 12 0 0 0 1.78 6.289l62.22 101.111v60.6a12 12 0 0 0 24 0v-64a12 12 0 0 0 -1.78-6.289l-62.22-101.111v-152.6h4a20.023 20.023 0 0 1 20 20v96a12 12 0 0 0 2.889 7.81l48 56a12 12 0 0 0 21.111-7.81v-55.459c-.126-6.5 5.621-12.806 12.236-12.539a12.057 12.057 0 0 1 11.764 11.998v208a12 12 0 0 0 24 0v-208a36.18 36.18 0 0 0 -35.309-35.994z"/><path d="m258 263c54.6.5 104.814-36.718 120.93-88.2a126.5 126.5 0 0 0 6.07-38.8c.052-69.743-56.794-127.007-127-127a127.226 127.226 0 0 0 -122.273 92.639c-.075.247-.144.494-.2.743a126.687 126.687 0 0 0 -4.527 33.618c-.383 70.422 58.616 127.5 127 127zm35.052-30.145v-20.255l14.733-29.466a12.012 12.012 0 0 0 1.1-7.336l-6.325-38.026a12 12 0 0 0 -8.043-9.415l-36.462-12.157a12.155 12.155 0 0 0 -1.451-.384l-25.768-5.133-3.709-3.563 15.65-12.52 36.989-3.7a12 12 0 0 0 10.8-11.555l1.306-40.618a103.2 103.2 0 0 1 38.335 23.9l-11.889 23.773a12.007 12.007 0 0 0 -1.033 7.721l8 40a11.991 11.991 0 0 0 4.014 6.805l16.316 13.812 8.777 17.555a103.534 103.534 0 0 1 -61.34 60.562zm67.948-96.542-13-11-6.374-31.863 4.966-9.932a102.365 102.365 0 0 1 14.408 52.482zm-103-103.313c3.383 0 6.726.169 10.026.489l-1.111 34.577-30.058 3.006a12 12 0 0 0 -6.3 2.57l-16.974 13.579h-12a12 12 0 0 0 -8.313 20.654l23.467 22.545a12.012 12.012 0 0 0 5.969 3.115l28.472 5.672 28.9 9.632 4.5 27.049-14.26 28.512a12 12 0 0 0 -1.266 5.367v28.64a103.378 103.378 0 0 1 -23.167-.122c-.158-4.1 1-11.767-1.466-15.354l-14.219-24.892 3.556-28.447a12 12 0 0 0 -5.178-11.424l-42.848-29.017-14.694-22.041a12 12 0 0 0 -3.624-3.52l-5.882-3.676a103.17 103.17 0 0 1 96.47-66.914zm-103 103c0-3.057.142-6.081.4-9.072l11.663 17.494a12.011 12.011 0 0 0 3.255 3.28l38.7 26.213-3.139 25.116a11.994 11.994 0 0 0 1.488 7.442l14.594 25.527-.006.485a103.171 103.171 0 0 1 -66.955-96.485z"/></g></g></svg>