<svg width="50" height="50" viewBox="0 0 50 50" fill="none" xmlns="http://www.w3.org/2000/svg">
<g clip-path="url(#clip0)">
<path d="M6.03905 43.7351L25.0965 50L44.054 43.7336L47.163 0H2.92969L6.03905 43.7351ZM44.0193 2.92816L41.2724 41.5691L25.0938 46.917L8.82034 41.5672L6.07338 2.92816H44.0193Z" fill="white"/>
<path d="M30.4927 28.0113L30.1452 32.9327L25.0919 34.6096L19.9447 32.9273L19.8001 30.9391H11.0137L11.6001 39.3986L25.0972 43.8725L38.4906 39.3967L39.9288 19.2272H18.9838L18.6622 14.6401H40.242L40.868 5.85596H9.22656L10.7784 28.0113H30.4927ZM37.7239 8.78412L37.5152 11.7119H15.5216L16.254 22.1554H36.7847L35.709 37.2387L25.093 40.7864L14.3856 37.2372L14.1517 33.8673H17.0776L17.1672 35.0998L25.0988 37.6923L32.9284 35.0945L33.6349 25.0832H13.5086L12.3668 8.78412H37.7239Z" fill="white"/>
</g>
<defs>
<clipPath id="clip0">
<rect width="50" height="50" fill="white"/>
</clipPath>
</defs>
</svg>
