<svg width="67" height="67" viewBox="0 0 67 67" fill="none" xmlns="http://www.w3.org/2000/svg">
<g clip-path="url(#clip0)">
<path d="M60.8343 8.40991H6.1657C2.76597 8.40991 0 11.1758 0 14.5798C0 17.9795 2.76597 20.7455 6.1657 20.7455H60.8343C64.234 20.7455 67 17.9795 67 14.5798C67 11.1758 64.234 8.40991 60.8343 8.40991Z" fill="white"/>
<path d="M60.8343 27.3323H6.1657C2.76597 27.3323 0 30.0981 0 33.5022C0 36.9019 2.76597 39.6679 6.1657 39.6679H60.8343C64.234 39.6679 67 36.9019 67 33.5022C67 30.0981 64.234 27.3323 60.8343 27.3323V27.3323Z" fill="white"/>
<path d="M60.8343 46.2544H6.1657C2.76597 46.2544 0 49.0204 0 52.4243C0 55.824 2.76597 58.59 6.1657 58.59H60.8343C64.234 58.59 67 55.824 67 52.4243C67 49.0204 64.234 46.2544 60.8343 46.2544Z" fill="white"/>
</g>
<defs>
<clipPath id="clip0">
<rect width="67" height="67" fill="white"/>
</clipPath>
</defs>
</svg>
