<svg width="87" height="98" viewBox="0 0 87 98" fill="none" xmlns="http://www.w3.org/2000/svg">
<g clip-path="url(#clip0)">
<path d="M21.2941 21.9588C16.7156 27.1458 13.8328 33.4183 12.086 40.0194C11.691 41.521 10.0516 42.3236 8.61623 41.7117C1.29243 38.5661 -1.62666 29.7638 2.33932 22.8796C6.06792 16.4035 14.1638 14.4256 20.628 18.0494C22.0421 18.8385 22.3695 20.7401 21.2941 21.9588Z" fill="#525E63"/>
<path d="M78.7785 41.5335C77.3413 42.2055 75.6416 41.4125 75.2339 39.8786C73.4817 33.2564 70.5111 26.9526 65.9579 21.8332C64.858 20.601 65.2079 18.6569 66.6733 17.8848C73.1626 14.4669 81.0181 16.5551 84.6595 22.8799C88.5667 29.6625 85.7805 38.2538 78.7785 41.5335Z" fill="#414C51"/>
<path d="M75.6082 79.3908C71.4757 84.6475 65.5574 88.4942 58.0145 90.8252C53.3264 92.2761 48.504 93 43.6816 93H43.4998C38.7369 92.9813 33.9757 92.2574 29.347 90.8252C17.2129 87.0755 3.12806 77.3825 4.93603 52.5071C6.23253 34.7803 12.8209 18.3187 28.3835 9.88051C33.0037 7.3711 38.2288 6.03059 43.4998 6.0017C43.5593 6 43.6204 6 43.6799 6C52.289 6 60.0881 9.40812 66.6024 15.2631C66.6092 15.2682 66.616 15.275 66.6228 15.2818C66.6533 15.3107 66.6873 15.3396 66.7196 15.3685C66.7264 15.3753 66.74 15.3872 66.7468 15.394C67.8054 16.3555 68.8215 17.3819 69.7663 18.4471C78.0226 27.7243 81.519 40.0673 82.4238 52.5073C83.2292 63.5695 80.9353 72.6152 75.6082 79.3908Z" fill="#5A7983"/>
<path d="M75.6084 79.3908C71.4759 84.6475 65.5576 88.4942 58.0147 90.8252C53.3266 92.2761 48.5042 93 43.6818 93H43.5V6.0017C43.5595 6 43.6206 6 43.6801 6C52.2892 6 60.0883 9.40812 66.6026 15.2631C66.6094 15.2682 66.6162 15.275 66.623 15.2818C66.6536 15.3107 66.6875 15.3396 66.7198 15.3685C66.7266 15.3753 66.7402 15.3872 66.747 15.394C67.8056 16.3555 68.8218 17.3819 69.7665 18.4471C78.0229 27.7243 81.5192 40.0673 82.424 52.5073C83.2294 63.5695 80.9355 72.6152 75.6084 79.3908Z" fill="#525E63"/>
<path d="M69.0085 42.6548C68.7077 47.0094 66.3815 50.5638 64.3305 53.7001C63.7562 54.5767 63.2142 55.4059 62.7163 56.2401C60.0859 60.6609 59.5574 65.5032 59.3875 69.659C59.3076 71.601 58.9627 73.278 58.4326 74.7272C58.1564 75.4834 56.2727 76.3605 56.2727 76.3605C56.2727 76.3605 56.3906 78.4471 55.775 79.1158C52.703 82.459 47.8947 84.0855 43.4709 84.0855C43.1753 84.0855 39.6766 84.0464 36.1082 82.3779C34.5772 81.661 32.9052 80.5905 31.4761 78.9968C30.9275 78.386 31.9309 76.2512 31.9309 76.2512C31.9309 76.2512 29.1791 75.4429 28.8763 74.5879C28.3751 73.1709 28.0488 71.5381 27.9724 69.6573C27.6699 62.2546 26.1185 58.7207 24.6436 56.2401C22.3204 52.3477 18.731 48.1516 18.3514 42.6546C18.0353 38.0757 19.7566 34.0253 23.1975 31.2474C27.5255 27.7542 34.3988 26.5513 40.3019 28.2571C43.3284 29.1341 44.0359 29.1362 47.058 28.2571C57.291 25.3032 69.8258 30.8124 69.0085 42.6548Z" fill="#F2E4E4"/>
<path d="M69.0085 42.6548C68.7077 47.0094 66.3815 50.5638 64.3306 53.7001C63.7562 54.5767 63.2142 55.4059 62.7163 56.2401C60.0859 60.6609 59.5574 65.5032 59.3875 69.659C59.3083 71.6012 58.9631 73.2788 58.4331 74.7274C58.1396 75.5296 56.2727 76.3605 56.2727 76.3605C56.2727 76.3605 56.3638 78.4774 55.776 79.1166C52.6773 82.4867 47.8344 84.0855 43.5 84.0855V28.913C44.5984 28.9642 45.9357 28.5837 47.0582 28.2571C57.291 25.3032 69.8258 30.8124 69.0085 42.6548Z" fill="#D8C5C5"/>
<path d="M58.4322 74.727C57.778 76.5178 56.84 77.9586 55.7746 79.1156C53.2886 77.9569 49.5945 76.0183 48.0568 74.9496C46.7178 74.022 45.0916 73.5785 43.4995 73.6159C41.9073 73.5785 40.2811 74.022 38.9421 74.9496C37.4553 75.9826 33.9532 77.8295 31.4758 78.9967C30.4274 77.8295 29.5115 76.3819 28.876 74.5877C31.0595 73.5785 34.7026 71.6875 36.0365 70.7616C38.2438 69.2307 40.8895 68.485 43.4995 68.5223C46.1095 68.485 48.7551 69.2307 50.9624 70.7616C52.3626 71.7317 56.3014 73.7653 58.4322 74.727Z" fill="#525E63"/>
<path d="M32.1991 46.3063C33.6066 46.3063 34.7477 45.1652 34.7477 43.7576C34.7477 42.3501 33.6066 41.209 32.1991 41.209C30.7915 41.209 29.6504 42.3501 29.6504 43.7576C29.6504 45.1652 30.7915 46.3063 32.1991 46.3063Z" fill="#525E63"/>
<path d="M54.7996 46.3063C56.2072 46.3063 57.3483 45.1652 57.3483 43.7576C57.3483 42.3501 56.2072 41.209 54.7996 41.209C53.392 41.209 52.251 42.3501 52.251 43.7576C52.251 45.1652 53.392 46.3063 54.7996 46.3063Z" fill="#414C51"/>
<path d="M37.3203 62.9484L34.8393 59.9659C33.9392 58.8839 34.0867 57.2769 35.1689 56.3768C36.251 55.4767 37.8581 55.6244 38.7585 56.7065L41.2396 59.689C42.1396 60.771 41.9921 62.378 40.9099 63.278C39.8272 64.1783 38.2204 64.0303 37.3203 62.9484Z" fill="#525E63"/>
<path d="M46.0899 63.2779C45.0077 62.3779 44.86 60.7709 45.7603 59.6889L48.2413 56.7064C49.1417 55.6242 50.7487 55.477 51.8307 56.3767C52.913 57.2768 53.0606 58.8838 52.1604 59.9658L49.6793 62.9483C48.7794 64.0298 47.1728 64.1785 46.0899 63.2779Z" fill="#414C51"/>
<path d="M58.4327 74.727C57.7785 76.5178 56.8406 77.9586 55.7752 79.1156C53.2892 77.9569 49.5951 76.0183 48.0573 74.9496C46.7183 74.022 45.0922 73.5785 43.5 73.6159V68.5223C46.11 68.485 48.7557 69.2307 50.963 70.7616C52.3631 71.7317 56.3019 73.7653 58.4327 74.727Z" fill="#414C51"/>
</g>
<defs>
<clipPath id="clip0">
<rect width="87" height="87" fill="white" transform="translate(0 6)"/>
</clipPath>
</defs>
</svg>
