<svg width="87" height="87" viewBox="0 0 87 87" fill="none" xmlns="http://www.w3.org/2000/svg">
<path d="M71.4213 86.6007C70.237 86.8658 69.0135 87 67.7663 87H19.2332C9.6719 87 2.04275 78.9545 2.65396 69.3349C2.68726 68.8107 4.74774 36.4207 4.78138 35.8909C5.3846 26.3991 9.49501 17.4442 16.3548 10.6745C23.3301 3.79096 32.3495 0 41.7513 0H45.2483C54.6501 0 63.6695 3.79096 70.6448 10.6745C77.5045 17.4442 81.615 26.3991 82.2182 35.8909L83.8868 62.1302L84.3456 69.3349C84.8873 77.8635 78.9905 84.9244 71.4213 86.6007Z" fill="#81A1B1"/>
<path d="M71.4216 86.6007C70.2372 86.8658 69.0138 87 67.7665 87H43.5V0H45.2485C54.6503 0 63.6697 3.79096 70.645 10.6745C77.5048 17.4442 81.6152 26.3991 82.2184 35.8909L83.887 62.1302L84.3458 69.3349C84.8875 77.8635 78.9907 84.9244 71.4216 86.6007Z" fill="#5A7983"/>
<path d="M67.7662 86.9999H19.2331C9.6266 86.9999 2.04537 78.9115 2.65386 69.3348L3.11265 62.1234C5.24517 60.6009 7.03444 58.9135 8.53655 57.1531C16.5246 47.7989 16.4039 36.37 16.4005 36.2239V36.1389L16.4481 32.088C16.5254 25.618 21.7857 20.4194 28.2594 20.4194H29.1396C35.6512 20.4194 40.9508 25.6875 40.9508 32.2307V37.8891H46.0485V32.2307C46.0485 25.6902 51.3434 20.4194 57.8598 20.4194H58.74C65.2101 20.4194 70.4739 25.6145 70.5512 32.088C70.5976 36.0322 70.3422 40.4323 72.575 46.8185C74.923 53.5224 78.8574 58.5552 83.8867 62.1302L84.3455 69.3348C84.9543 78.9201 77.3644 86.9999 67.7662 86.9999Z" fill="#FFF5F5"/>
<path d="M67.7665 86.9999H43.5V37.8891H46.0488V32.2307C46.0488 25.6902 51.3438 20.4194 57.8601 20.4194H58.7403C61.8686 20.4194 64.8167 21.631 67.0427 23.8281C69.267 26.0269 70.5142 28.9597 70.5516 32.088C70.5979 36.0322 70.3426 40.4323 72.5753 46.8185C74.9233 53.5224 78.8577 58.5552 83.887 62.1302L84.3458 69.3348C84.9546 78.9201 77.3647 86.9999 67.7665 86.9999Z" fill="#F2E4E4"/>
<path d="M71.4213 86.6007C70.2369 86.8658 69.0135 87.0001 67.7662 87.0001H19.2331C17.9859 87.0001 16.7625 86.8658 15.5781 86.6007C19.7769 61.036 31.2891 50.5213 31.804 50.0642C32.2696 49.6479 32.8728 49.4185 33.4981 49.4185H53.5013C54.1266 49.4185 54.7298 49.6479 55.1954 50.0642C55.7103 50.5213 67.2225 61.036 71.4213 86.6007Z" fill="#F2E4E4"/>
<path d="M71.4216 86.6007C70.2372 86.8658 69.0138 87.0001 67.7665 87.0001H43.5V49.4185H53.5016C54.1269 49.4185 54.7301 49.6479 55.1957 50.0642C55.7106 50.5213 67.2228 61.036 71.4216 86.6007Z" fill="#D8C5C5"/>
<path d="M28.7617 35.1147C30.1694 35.1147 31.3105 33.9736 31.3105 32.5659C31.3105 31.1582 30.1694 30.0171 28.7617 30.0171C27.354 30.0171 26.2129 31.1582 26.2129 32.5659C26.2129 33.9736 27.354 35.1147 28.7617 35.1147Z" fill="#525E63"/>
<path d="M58.2373 35.1147C59.645 35.1147 60.7861 33.9736 60.7861 32.5659C60.7861 31.1582 59.645 30.0171 58.2373 30.0171C56.8296 30.0171 55.6885 31.1582 55.6885 32.5659C55.6885 33.9736 56.8296 35.1147 58.2373 35.1147Z" fill="#414C51"/>
<path d="M57.2096 49.9791L48.8647 57.6425C47.3966 58.9883 45.4918 59.7309 43.5003 59.7309C41.5105 59.7309 39.6057 58.9883 38.1375 57.6425L29.791 49.9791C28.7188 48.9935 28.1852 47.5968 28.3314 46.1473C28.4792 44.6979 29.2778 43.4337 30.5251 42.6826L40.7306 36.5349C41.5853 36.02 42.5419 35.7617 43.5003 35.7617C44.4586 35.7617 45.417 36.02 46.2717 36.5349L56.4755 42.6826C59.0899 44.2605 59.4685 47.906 57.2096 49.9791Z" fill="#FFD18B"/>
<path d="M57.2093 49.9791L48.8644 57.6425C47.3963 58.9883 45.4915 59.7309 43.5 59.7309V35.7617C44.4584 35.7617 45.4167 36.02 46.2714 36.5349L56.4752 42.6826C59.0896 44.2605 59.4682 47.906 57.2093 49.9791Z" fill="#FFB22A"/>
</svg>
