<svg width="249" height="230" viewBox="0 0 249 230" fill="none" xmlns="http://www.w3.org/2000/svg">
<path d="M230.559 53.498H202.774V8.13299C202.774 3.98999 199.416 0.632996 195.274 0.632996H52.785C48.643 0.632996 45.285 3.98999 45.285 8.13299V53.498H17.5C7.851 53.498 0 61.348 0 70.998V167.223C0 176.872 7.851 184.723 17.5 184.723H45.285V221.926C45.285 226.069 48.643 229.426 52.785 229.426H195.273C199.415 229.426 202.773 226.069 202.773 221.926V184.723H230.558C240.207 184.723 248.058 176.872 248.058 167.223V70.998C248.059 61.349 240.208 53.498 230.559 53.498ZM60.285 15.633H187.773V53.498H60.285V15.633ZM187.773 214.426H60.285V140.022H187.773V214.426ZM233.059 167.223C233.059 168.578 231.914 169.723 230.559 169.723H202.774V132.522C202.774 128.379 199.416 125.022 195.274 125.022H52.785C48.643 125.022 45.285 128.379 45.285 132.522V169.723H17.5C16.145 169.723 15 168.578 15 167.223V70.998C15 69.642 16.145 68.498 17.5 68.498H52.785H195.273H230.558C231.913 68.498 233.058 69.642 233.058 70.998V167.223H233.059Z" fill="white"/>
<path d="M195.273 107.428C201.165 107.428 205.941 102.652 205.941 96.76C205.941 90.8682 201.165 86.092 195.273 86.092C189.381 86.092 184.605 90.8682 184.605 96.76C184.605 102.652 189.381 107.428 195.273 107.428Z" fill="white"/>
<path d="M158.151 154.822H89.9072C85.7652 154.822 82.4072 158.179 82.4072 162.322C82.4072 166.465 85.7652 169.822 89.9072 169.822H158.151C162.293 169.822 165.651 166.465 165.651 162.322C165.651 158.18 162.294 154.822 158.151 154.822Z" fill="white"/>
<path d="M158.151 184.623H89.9072C85.7652 184.623 82.4072 187.98 82.4072 192.123C82.4072 196.266 85.7652 199.623 89.9072 199.623H158.151C162.293 199.623 165.651 196.266 165.651 192.123C165.651 187.98 162.294 184.623 158.151 184.623Z" fill="white"/>
</svg>
