<svg width="50" height="50" viewBox="0 0 50 50" fill="none" xmlns="http://www.w3.org/2000/svg">
<path d="M7.32422 44.043H42.6758C46.7144 44.043 50 40.7574 50 36.7188V13.2812C50 9.24263 46.7144 5.95703 42.6758 5.95703H7.32422C3.2856 5.95703 0 9.24263 0 13.2812V36.7188C0 40.7574 3.2856 44.043 7.32422 44.043ZM2.92969 13.2812C2.92969 10.8582 4.90112 8.88672 7.32422 8.88672H42.6758C45.0989 8.88672 47.0703 10.8582 47.0703 13.2812V36.7188C47.0703 39.1418 45.0989 41.1133 42.6758 41.1133H7.32422C4.90112 41.1133 2.92969 39.1418 2.92969 36.7188V13.2812Z" fill="white"/>
<path d="M17.6758 15.1863V35.0982L35.3027 24.979L17.6758 15.1863ZM20.6055 20.1652L29.3457 25.021L20.6055 30.0384V20.1652Z" fill="white"/>
</svg>
